<?xml  version="1.0" encoding="UTF-8"?>
<!DOCTYPE svg PUBLIC "-//W3C//DTD SVG 1.0//EN" "http://www.w3.org/TR/2001/REC-SVG-20010904/DTD/svg10.dtd" >
<svg xmlns="http://www.w3.org/2000/svg" >
<metadata>
<version>1.0</version>
<id><![CDATA[Minion W01 Md]]></id>
<vendor>Monotype Imaging Inc.</vendor>
<credits>
<name>Fonts.com WebFonts</name>
<URL>http://webfonts.fonts.com</URL>
<role>Home of the Web fonts</role>
</credits>
<license>
<URL>http://webfonts.fonts.com/Legal</URL>
</license>
<copyright><![CDATA[© 1990, 1991, 1992, 1994, 1997, 1998, 2000, 2002, 2004 Adobe Systems Incorporated. All rights reserved.]]></copyright>
<trademark><![CDATA[Minion is either a registered trademark or a trademark of Adobe Systems Incorporated in the United States and/or other countries.]]></trademark>
<licensee>
<name></name>
</licensee>
</metadata>
<defs >
<font horiz-adv-x="504" id="6a389bd3-e422-4a95-88e7-cf626430c977">
<font-face font-family="" panose-1="2 4 5 3 5 3 6 2 2 3" ascent="750" descent="-250" units-per-em="1000" alphabetic="0">
</font-face>
<missing-glyph horiz-adv-x="225" />

<glyph unicode="&#xA;" horiz-adv-x="0" />
<glyph unicode="&#xD;" horiz-adv-x="225" />
<glyph unicode=" " horiz-adv-x="225" />
<glyph unicode="!" horiz-adv-x="277" d="M137 665Q169 665 182 657T196 632Q196 620 194 602T188 554Q177 469 170 382T155 201Q153 198 148 197T137 195T126 196T119 201Q111 295 104 382T86 554Q82 584 80 602T78 632Q78 665 137 665ZM138 -12Q112 -12 96 5T79 50Q79 76 95 94T138 112Q164 112 181 94T199 50Q199 22 182 5T138 -12Z"  />
<glyph unicode="&quot;" horiz-adv-x="329" d="M131 704Q130 695 127 668T119 606T111 537T103 478L73 464Q69 500 64 536T55 603T46 655T41 682L124 709L131 704ZM286 704Q285 695 282 667T275 605T266 537T258 478L229 464Q224 500 219 536T210 603T202 655T197 682L280 709L286 704Z"  />
<glyph unicode="#" horiz-adv-x="483" d="M442 394H350L320 260H406L396 198H306L268 25H228L266 198H159L121 25H81L120 198H23L34 260H135L163 394H71L80 457H177L211 609H252L218 457H324L357 609H397L365 457H451L442 394ZM204 394L175 260H281L310 394H204Z"  />
<glyph unicode="$" horiz-adv-x="483" d="M296 354Q324 344 350 330T395 295T427 248T439 187Q439 115 393 68T266 11V-75H230V9Q182 9 141 20T72 50Q70 58 67 73T60 106T52 144T45 184L75 191Q82 170 93 146T123 101T167 64T230 44V280L195 295Q167 307 144 321T103 355T75 398T65 451Q65 481 75 508T107 558T158 594T230 614V693H266V616Q290 616 313 613T355 604Q366 601 374 600T390 596Q395 570 400 541T411 469L382 463Q376 484 368 503T348 539T316 567T266 583V366L296 354ZM230 583Q207 580 190 571T161 549T145 519T139 485Q139 445 163 421T230 380V583ZM266 45Q311 51 335 79T359 150Q359 182 344 210T278 262L266 267V45Z"  />
<glyph unicode="%" horiz-adv-x="758" d="M191 -33L159 -9L562 652L595 628L191 -33ZM194 635Q233 635 260 618T306 575T332 517T341 455Q341 425 333 393T307 335T261 291T194 274Q156 274 129 291T83 334T57 393T48 454Q48 484 56 516T83 574T128 618T194 635ZM195 604Q173 604 160 588T139 549T128 500T125 455Q125 436 128 411T138 362T159 322T195 305Q217 305 231 321T252 361T261 411T264 455Q264 474 262 499T252 548T231 587T195 604ZM566 349Q605 349 632 332T678 289T704 231T713 169Q713 139 705 107T678 49T633 5T566 -12Q528 -12 501 5T455 48T429 107T420 168Q420 198 428 230T455 288T500 332T566 349ZM567 319Q545 319 532 303T511 264T500 215T497 169Q497 150 500 125T510 76T531 36T567 19Q589 19 602 35T623 76T632 125T635 169Q635 188 633 214T623 263T603 302T567 319Z"  />
<glyph unicode="&amp;" horiz-adv-x="712" d="M719 398Q693 395 677 390T648 377T626 356T603 325Q583 296 563 265T516 194Q534 177 557 152T603 99T648 43T681 -7L674 -18Q651 -17 630 -12T591 -1T561 11T544 22Q539 27 530 37T509 61T484 88T458 116Q405 45 355 16T252 -14Q204 -14 167 2T104 45T65 103T52 168Q52 202 63 227T94 275T141 317T200 360Q167 392 148 424T129 499Q129 533 142 562T179 612T232 646T296 659Q328 659 355 649T403 620T436 576T448 520Q448 490 436 469T406 433Q392 421 373 407T326 373Q338 362 356 347T396 311T442 268T491 220Q508 246 521 272T549 330Q564 364 553 377T489 398V427H719V398ZM286 624Q252 624 230 597T207 526Q207 488 229 458T299 393Q332 417 350 447T369 520Q369 562 347 593T286 624ZM282 59Q306 59 328 66T370 85T406 112T434 144Q392 190 343 235T226 337Q181 305 163 270T144 200Q144 164 156 138T188 94T232 68T282 59Z"  />
<glyph unicode="&apos;" horiz-adv-x="175" d="M131 704Q130 695 127 668T119 606T111 537T103 478L73 465Q69 501 64 537T55 603T46 655T41 682L124 709L131 704Z"  />
<glyph unicode="(" horiz-adv-x="347" d="M283 -170Q173 -95 122 19T71 271Q71 338 83 401T122 520T188 624T283 710L303 686Q266 654 238 610T189 511T159 396T148 270Q148 205 158 144T189 29T238 -70T303 -146L283 -170Z"  />
<glyph unicode=")" horiz-adv-x="347" d="M64 710Q175 634 225 520T275 270Q275 134 225 21T64 -170L44 -146Q81 -115 110 -70T158 29T188 144T199 270Q199 334 189 396T158 512T109 611T44 687L64 710Z"  />
<glyph unicode="*" horiz-adv-x="404" d="M233 466L272 328L248 318L177 448L55 372L40 395L143 489L38 591L54 613L175 533L233 665L258 659L232 520L365 517V491L233 466Z"  />
<glyph unicode="+" horiz-adv-x="579" d="M321 228V0H260V228H51V281H260V487H321V281H529V228H321Z"  />
<glyph unicode="&#x2c;" horiz-adv-x="233" d="M95 135Q110 135 126 128T157 106T181 71T191 24Q191 -6 179 -30T147 -71T103 -101T53 -120L42 -90Q80 -74 101 -53T122 -3Q122 23 104 40T57 65Q53 66 49 72T44 92Q44 112 59 123T95 135Z"  />
<glyph unicode="-" horiz-adv-x="353" d="M286 197H54L68 255H300L286 197Z"  />
<glyph unicode="." horiz-adv-x="233" d="M116 -12Q90 -12 74 4T57 49Q57 75 73 92T116 109Q142 109 158 92T175 49Q175 21 159 5T116 -12Z"  />
<glyph unicode="/" horiz-adv-x="330" d="M82 -44H24L240 665H299L82 -44Z"  />
<glyph unicode="0" horiz-adv-x="483" d="M242 635Q299 635 338 606T402 531T437 427T448 312Q448 257 438 200T403 95T339 18T242 -12Q184 -12 145 16T81 91T45 195T34 311Q34 366 45 423T80 528T145 605T242 635ZM241 600Q208 600 187 575T154 509T137 417T132 313Q132 261 137 210T156 117T190 49T242 23Q274 23 295 48T328 115T345 208T350 312Q350 365 345 417T328 509T294 575T241 600Z"  />
<glyph unicode="1" horiz-adv-x="483" d="M108 0V28Q141 31 160 35T188 48T200 73T203 116V497Q203 516 202 527T195 545T181 553T155 556L106 559V583Q154 591 200 604T293 635V116Q293 89 295 73T307 48T336 35T388 28V0H108Z"  />
<glyph unicode="2" horiz-adv-x="483" d="M446 137Q435 103 427 68T410 0H32V24Q73 65 114 107T193 193Q217 221 239 250T278 310T305 370T315 433Q315 494 285 528T200 563Q175 563 155 554T117 532T87 502T64 471L41 492L99 575Q123 601 157 618T237 635Q271 635 301 623T355 589T393 536T407 465Q407 433 400 405T376 348T334 289T274 222L136 79H318Q339 79 352 80T376 89T396 109T417 146L446 137Z"  />
<glyph unicode="3" horiz-adv-x="483" d="M63 514L107 578Q129 601 162 618T238 635Q307 635 347 598T388 502Q388 462 358 432Q346 420 329 407T289 379V377Q357 364 393 322T430 224Q430 183 415 150T376 91T323 45T264 13T208 -6T164 -12Q129 -12 101 0T62 22Q43 40 44 58Q45 69 53 79T69 94Q82 105 95 94Q104 86 116 77T145 59T179 46T220 40Q271 40 303 78T335 190Q335 224 324 248T294 289T253 312T210 319Q193 319 176 316T148 309L141 338Q175 349 203 362T253 392T285 430T297 478Q297 526 270 549T204 572Q184 572 167 565T134 547T107 522T84 494L63 514Z"  />
<glyph unicode="4" horiz-adv-x="483" d="M366 177V107Q366 82 368 68T378 45T403 34T450 28V0H187V28Q220 31 238 34T265 46T276 69T278 108V177H19V208Q92 316 168 423T321 631H366V226H461V177H366ZM278 515H276Q230 451 182 380T84 226H278V515Z"  />
<glyph unicode="5" horiz-adv-x="483" d="M126 364Q156 375 188 385T241 395Q289 395 325 381T386 342T422 288T435 226Q435 180 413 138T344 59Q302 26 256 8T168 -12Q134 -12 106 0T65 23Q54 33 50 40T47 58Q48 66 54 76T70 94Q84 104 98 92Q107 85 119 76T146 59T181 46T223 40Q253 40 275 52T313 84T335 130T343 184Q343 251 303 293T183 335Q151 335 124 329T79 316L119 623H410L416 615L389 544H152L126 364Z"  />
<glyph unicode="6" horiz-adv-x="483" d="M209 377Q226 385 241 390T271 395Q311 395 344 381T402 342T439 283T453 210Q453 165 438 125T394 54T328 6T244 -12Q199 -12 161 5T95 55T51 134T35 239Q35 321 60 383T124 491T208 565T295 609Q325 620 361 628T426 641L433 608Q409 603 381 595T325 573Q303 562 276 545T224 500T177 435T145 346L209 377ZM229 336Q202 336 179 328T139 311Q136 297 135 278T133 240Q133 194 142 155T168 86T208 41T261 24Q289 24 308 38T338 73T354 121T359 172Q359 204 351 233T327 286T286 322T229 336Z"  />
<glyph unicode="7" horiz-adv-x="483" d="M460 611Q389 458 319 306T176 -1L97 -12L90 0Q130 64 170 133T249 271T323 410T388 544H173Q148 544 133 542T109 532T92 509T76 470H46Q54 515 57 553T65 623H452L460 611Z"  />
<glyph unicode="8" horiz-adv-x="483" d="M250 635Q287 635 317 624T370 592T404 544T417 486Q417 441 388 407Q381 399 362 383T310 344Q336 330 360 314T402 276T431 229T442 170Q442 126 423 92T374 35T308 0T239 -12Q197 -12 162 -1T100 32T58 85T43 157Q43 192 57 213T87 251Q99 262 124 280T176 314Q128 341 98 378T67 469Q67 501 80 531T118 584T175 621T250 635ZM240 601Q218 601 202 593T174 570T156 538T150 501Q150 474 160 454T188 417T229 387T280 360Q303 379 320 407T337 481Q337 512 328 535T305 572T274 594T240 601ZM249 22Q295 22 325 53T355 142Q355 170 343 192T311 232T263 266T206 297Q173 274 152 240T130 164Q130 129 140 103T166 58T204 31T249 22Z"  />
<glyph unicode="9" horiz-adv-x="483" d="M244 635Q292 635 330 615T393 561T432 481T446 385Q446 316 428 258T378 153T302 72T207 17Q188 9 167 3T127 -6T90 -12T62 -15L57 16Q111 25 157 48T241 106T303 187T341 288L276 254Q259 245 245 242T217 238Q176 238 143 252T85 290T48 349T35 422Q35 458 49 495T89 564T155 615T244 635ZM230 600Q202 600 183 586T152 551T135 505T130 458Q130 425 139 396T165 345T206 310T261 297Q286 297 308 304T345 322Q347 339 348 356T349 390Q349 424 344 461T325 529T288 580T230 600Z"  />
<glyph unicode=":" horiz-adv-x="233" d="M117 413Q143 413 159 396T175 352Q175 326 159 309T117 291Q91 291 75 308T58 352Q58 379 74 396T117 413ZM117 -12Q92 -12 76 4T59 49Q59 75 75 92T117 109Q143 109 159 92T176 49Q176 21 160 5T117 -12Z"  />
<glyph unicode=";" horiz-adv-x="233" d="M116 413Q142 413 158 396T175 352Q175 326 159 309T116 291Q90 291 74 308T57 352Q57 379 73 396T116 413ZM96 135Q111 135 127 128T158 106T182 71T192 24Q192 -6 180 -30T148 -72T104 -102T55 -121L44 -90Q82 -74 102 -53T122 -3Q122 24 104 41T58 65Q54 66 50 72T45 92Q45 112 60 123T96 135Z"  />
<glyph unicode="&lt;" horiz-adv-x="552" d="M59 228V279L493 507V448L120 254V252L493 58V0L59 228Z"  />
<glyph unicode="=" horiz-adv-x="579" d="M51 320V372H529V320H51ZM51 137V189H529V137H51Z"  />
<glyph unicode="&gt;" horiz-adv-x="552" d="M59 0V58L432 252V254L59 448V507L493 279V228L59 0Z"  />
<glyph unicode="?" horiz-adv-x="382" d="M202 195Q187 201 168 213T130 242T100 281T88 325Q88 351 106 377T175 439Q190 450 207 462T240 488T265 516T275 546Q275 570 260 584T218 598Q194 598 175 589T140 570T115 550T100 541Q94 541 87 545T73 555T61 570T56 589Q56 600 61 608T77 626Q89 636 102 643T129 655T154 662T174 665Q205 665 234 652T286 615T323 563T337 502Q337 475 327 454T287 411Q275 401 257 388T221 360T191 329T178 295Q178 272 189 255T221 218L202 195ZM185 -12Q160 -12 144 5T127 50Q127 76 143 93T185 111Q211 111 227 94T244 50Q244 22 228 5T185 -12Z"  />
<glyph unicode="@" horiz-adv-x="755" d="M557 -43Q506 -73 457 -85T356 -97Q296 -97 241 -78T144 -21T77 75T52 208Q52 296 85 365T171 481T292 554T433 579Q500 579 552 558T641 502T696 420T715 322Q715 271 697 226T647 147T572 94T477 74Q457 74 446 79T431 93T427 116T431 145L441 200L439 201Q427 183 406 161T361 120T313 87T271 74Q252 74 237 94T222 159Q222 180 226 203T240 252T265 301T303 346Q335 378 376 399T466 420Q477 421 491 418T516 412Q526 410 534 409T551 408Q540 363 527 305T502 182Q494 144 498 130T521 117Q546 117 571 130T618 169T652 233T666 322Q666 374 648 414T599 482T524 524T429 539Q360 539 303 515T205 448T142 346T119 217Q119 168 133 120T179 34T262 -27T388 -51Q410 -51 433 -48T478 -39T517 -27T546 -14L557 -43ZM423 379Q403 379 387 371T359 350Q348 338 338 320T321 280T308 234T303 185Q302 158 308 149T323 139Q336 139 372 167T450 257Q458 283 464 314T476 368Q466 373 452 376T423 379Z"  />
<glyph unicode="A" horiz-adv-x="694" d="M423 0V29Q469 35 479 45T480 86Q471 115 458 152T428 233H218Q207 201 197 170T176 108Q168 85 167 71T171 49T194 36T238 29V0H19V29Q43 32 59 36T87 51T109 81T132 133L338 655L373 665Q420 535 469 399T566 132Q578 100 587 81T608 51T636 36T676 29V0H423ZM328 525H325Q302 462 280 400T234 277H413L328 525Z"  />
<glyph unicode="B" horiz-adv-x="597" d="M377 350Q415 344 448 333T505 302T543 256T557 191Q557 141 532 103T462 41Q424 19 374 10T263 0H36V29Q67 31 85 34T112 48T123 76T126 125V525Q126 556 124 574T114 601T90 614T43 621V650H306Q363 650 399 642T460 616Q486 598 501 568T516 502Q516 466 503 441T469 398T424 370T377 353V350ZM262 362Q343 362 379 394T415 489Q415 543 384 579T286 616Q268 616 254 614T232 606Q225 601 223 591T220 557V362H262ZM220 127Q220 73 237 54T301 36Q330 36 356 44T403 70T436 115T449 182Q449 257 401 292T261 328H220V127Z"  />
<glyph unicode="C" horiz-adv-x="667" d="M646 166Q641 149 634 128T619 85T604 44T589 12Q578 9 558 5T513 -4T460 -12T405 -15Q310 -15 242 14T130 91T64 197T43 316Q43 395 71 459T151 569T274 640T431 665Q461 665 489 662T540 654T580 645T608 638Q614 596 619 561T629 485L598 478Q578 559 531 593T405 627Q344 627 297 603T219 539T171 446T155 336Q155 266 174 209T227 110T308 46T412 23Q486 23 532 63T616 177L646 166Z"  />
<glyph unicode="D" horiz-adv-x="739" d="M326 650Q422 650 492 630T610 564Q647 529 671 475T695 350Q695 259 662 193T572 83Q515 40 441 20T273 0H33V29Q65 31 83 34T111 48T123 76T126 126V524Q126 556 124 574T113 601T87 614T42 620V650H326ZM220 133Q220 77 244 58T322 38Q389 38 439 61T522 125T571 219T588 335Q588 412 561 473T477 570Q444 593 402 604T309 615Q277 615 259 611T233 602Q226 597 223 586T220 545V133Z"  />
<glyph unicode="E" horiz-adv-x="570" d="M550 159Q548 146 544 124T534 78T524 33T516 0H28V29Q62 32 81 36T111 49T124 77T127 126V521Q127 554 125 573T113 601T87 614T42 621V650H492Q492 641 493 625T495 588T497 547T501 505L470 500Q463 531 455 550T437 585Q426 602 402 608T326 614H255Q231 614 226 609T220 581V356H310Q343 356 362 358T393 368T408 391T418 431H448V238H418Q413 265 408 280T392 303T362 313T310 315H220V130Q220 95 225 76T244 48Q258 39 284 38T346 36Q373 36 392 37T426 43T450 53T469 69Q483 85 496 109T520 164L550 159Z"  />
<glyph unicode="F" horiz-adv-x="533" d="M468 498Q461 527 455 545T438 579Q432 589 424 596T403 607T372 612T326 614H254Q231 614 226 609T220 581V347H320Q354 347 373 349T403 359T418 381T428 420H458V227H428Q423 252 419 268T404 292T374 303T320 306H220V129Q220 96 223 77T236 49T265 36T319 29V0H40V29Q69 31 86 34T113 48T124 77T127 129V522Q127 555 125 573T114 601T88 614T42 620V650H488Q488 638 489 620T491 582T494 541T498 502L468 498Z"  />
<glyph unicode="G" horiz-adv-x="717" d="M694 274Q672 271 660 268T641 257T633 236T631 200V116Q631 90 632 66T638 22Q592 11 533 -2T414 -15Q330 -15 262 9T146 78T71 183T44 320Q44 407 76 471T161 579T284 643T428 665Q459 665 488 662T543 653T589 644T621 636Q623 610 627 570T637 478L607 472Q598 517 580 547T537 595T480 620T412 628Q357 628 310 608T229 549T175 457T155 333Q155 278 171 223T220 122T304 49T426 21Q449 21 470 25T507 38Q521 46 529 59T537 101V188Q537 215 535 230T522 255T490 267T432 274V303H694V274Z"  />
<glyph unicode="H" horiz-adv-x="769" d="M732 621Q702 618 684 615T657 602T646 574T643 525V125Q643 93 645 76T657 49T684 36T732 29V0H457V29Q488 32 506 35T534 48T546 75T549 125V322H221V125Q221 93 223 76T235 49T261 36T309 29V0H40V29Q70 32 87 35T113 48T124 75T127 125V525Q127 556 125 574T113 601T86 614T37 621V650H304V621Q276 618 260 615T235 602T224 574T221 525V366H549V525Q549 556 547 574T536 601T510 614T464 621V650H732V621Z"  />
<glyph unicode="I" horiz-adv-x="347" d="M38 0V29Q68 31 85 34T112 48T124 76T127 126V523Q127 555 125 573T113 601T86 614T38 621V650H309V621Q279 618 262 615T235 601T223 573T220 523V126Q220 94 222 76T234 48T261 35T309 29V0H38Z"  />
<glyph unicode="J" horiz-adv-x="335" d="M310 621Q281 618 265 615T239 601T228 573T225 523V158Q225 111 221 73T207 3T180 -55T136 -106Q110 -130 85 -144T39 -165L25 -135Q67 -115 90 -83T121 -6Q128 32 130 77T132 185V523Q132 554 130 572T118 601T91 614T43 621V650H310V621Z"  />
<glyph unicode="K" horiz-adv-x="678" d="M511 0Q457 62 397 136T272 289Q255 310 243 315T219 318V130Q219 97 221 78T233 49T261 35T310 29V0H43V29Q71 31 87 35T113 49T124 78T127 130V519Q127 553 125 572T113 601T87 614T39 621V650H304V621Q275 619 259 615T233 601T222 572T219 519V345Q235 350 251 361T290 392Q333 434 376 480T452 567Q474 593 472 603T434 618L413 621V650H656V621Q629 618 609 615T572 603T536 582T494 546Q462 517 417 471T323 376Q350 341 382 302T445 226T505 157T553 101Q572 80 586 67T614 47T641 35T673 29V0H511Z"  />
<glyph unicode="L" horiz-adv-x="541" d="M529 159Q527 147 522 125T512 78T502 33T493 0H34V29Q65 31 83 35T112 48T124 76T127 127V524Q127 556 125 574T113 601T87 614T39 621V650H308V621Q279 619 262 616T235 603T223 575T220 524V130Q220 90 225 73T244 48Q258 40 282 38T336 36Q376 36 402 41T446 67Q460 82 473 106T498 166L529 159Z"  />
<glyph unicode="M" horiz-adv-x="890" d="M592 0V29Q622 32 639 36T664 51T673 85T675 146L672 550H668L428 7H407L187 536H184L170 256Q167 194 167 157T167 91Q168 56 188 45T259 30V0H25V30Q68 34 86 46T109 89Q111 102 113 117T117 154T122 205T128 273L143 479Q146 527 146 553T137 594T109 613T56 621V650H228L449 161L674 650H850V621Q817 618 799 614T771 600T761 568T760 510L770 147Q771 108 773 86T784 52T811 36T861 29V0H592Z"  />
<glyph unicode="N" horiz-adv-x="743" d="M720 621Q678 619 659 607T636 561Q634 538 632 500T630 393V-9H596L172 510H170V264Q170 195 172 157T176 96Q178 78 183 66T200 46T228 34T272 29V0H34V29Q77 32 97 45T121 94Q123 117 125 156T128 264V482Q128 509 128 524T125 550T118 568T107 584Q92 603 73 610T19 621V650H174L585 160H588V393Q588 462 586 499T581 559Q577 592 556 605T482 621V650H720V621Z"  />
<glyph unicode="O" horiz-adv-x="750" d="M382 665Q447 665 506 641T609 574T680 469T707 333Q707 252 681 188T608 78T501 9T371 -15Q302 -15 242 10T138 80T69 186T43 319Q43 386 66 448T132 559T239 636T382 665ZM362 628Q321 628 284 610T218 556T172 467T155 345Q155 276 172 217T221 115T296 47T392 22Q432 22 469 39T534 92T578 181T595 306Q595 384 577 444T527 545T453 607T362 628Z"  />
<glyph unicode="P" horiz-adv-x="569" d="M298 650Q352 650 394 641T467 609Q498 586 515 551T533 467Q533 418 517 382T473 320T410 281T337 261Q326 259 314 259T293 260L220 279V125Q220 93 222 75T235 48T264 35T317 29V0H39V29Q69 31 86 35T113 48T124 76T127 126V523Q127 556 125 574T114 602T89 615T45 621V650H298ZM220 313Q229 309 247 306T289 302Q311 302 336 309T381 334T414 384T428 463Q428 504 417 533T385 581T339 608T282 617Q242 617 230 605Q225 600 223 591T220 561V313Z"  />
<glyph unicode="Q" horiz-adv-x="748" d="M715 -160Q678 -162 642 -158T583 -146Q560 -140 503 -110T352 -14Q331 -13 305 -8T251 8T196 35T145 75Q100 118 72 180T43 315Q43 384 66 447T133 558T240 636T385 665Q449 665 507 641T610 573T680 468T707 331Q707 265 689 211T639 115T566 45T481 3Q528 -29 591 -68T722 -138L715 -160ZM420 48Q427 43 434 39T447 29Q475 38 501 59T549 114T582 195T595 302Q595 379 578 439T529 541T455 605T362 627Q320 627 283 609T217 554T172 464T155 342Q155 279 169 226T209 131T271 62T350 26L420 48Z"  />
<glyph unicode="R" horiz-adv-x="628" d="M632 -8Q624 -8 616 -8T598 -7Q566 -6 542 -1T498 16T462 44T428 85Q403 120 378 162T331 242Q324 253 317 260T301 273T279 280T248 283H219V126Q219 94 221 76T233 48T259 35T307 29V0H37V29Q67 31 85 34T112 48T124 76T127 126V525Q127 556 125 574T113 601T87 614T41 621V650H295Q352 650 390 643T458 615Q489 595 507 563T525 484Q525 419 489 379T398 314Q404 302 414 285T437 247T462 207T486 170Q513 130 531 107T566 65Q586 44 602 34T636 19L632 -8ZM263 317Q300 317 325 323T370 345Q398 368 410 398T423 468Q423 508 411 536T380 582T335 608T282 616Q260 616 248 614T229 606Q224 601 222 592T219 563V317H263Z"  />
<glyph unicode="S" horiz-adv-x="480" d="M385 496Q378 520 369 543T344 586T307 618T253 630Q226 630 206 621T172 597T151 563T144 522Q144 496 152 476T177 439T217 407T271 377Q302 361 333 344T388 303T428 249T444 177Q444 137 428 102T382 41T311 0T218 -15Q188 -15 164 -11T120 0Q100 6 88 11T68 21Q65 29 61 47T54 89T47 136T41 179L72 187Q78 164 90 135T122 81T170 39T237 22Q292 22 323 53T354 139Q354 166 345 186T318 224T278 256T226 286Q199 300 170 317T116 357T75 412T59 484Q59 521 73 553T115 611T181 650T269 665Q307 665 339 657T397 641Q400 614 404 582T415 502L385 496Z"  />
<glyph unicode="T" horiz-adv-x="621" d="M566 492Q558 529 550 550T532 584Q526 592 519 598T500 607T470 612T425 614H359V125Q359 95 361 77T374 49T405 35T461 29V0H167V29Q201 31 220 35T250 49T262 77T265 125V614H208Q177 614 157 612T124 607T104 597T92 583Q83 570 75 548T59 492H28Q31 539 34 586T40 675H61Q72 658 83 654T116 650H513Q533 650 543 655T564 675H586Q586 658 587 636T589 590T592 542T596 495L566 492Z"  />
<glyph unicode="U" horiz-adv-x="735" d="M717 621Q672 617 653 605T630 562Q628 541 626 506T624 404V316Q624 229 608 165T549 55Q514 19 467 2T369 -15Q324 -15 282 -4T206 34Q161 68 140 125T119 271V518Q119 552 117 571T105 601T79 614T32 621V650H298V621Q269 619 252 616T227 602T216 572T213 518V293Q213 172 259 107T396 42Q448 42 483 62T540 120T571 209T581 323V404Q581 470 579 505T574 564Q572 578 567 588T550 605T521 615T477 621V650H717V621Z"  />
<glyph unicode="V" horiz-adv-x="705" d="M690 620Q664 617 648 613T619 598T595 566T570 512Q559 487 537 431T485 303T423 149T363 -10H329Q304 59 276 132T221 277T169 413T123 530Q112 558 103 575T82 601T55 614T17 620V650H272V620Q245 617 231 614T210 604T205 587T213 561Q223 534 241 486T281 380T327 258T375 135H377Q396 183 418 239T461 350T499 455T529 542Q536 564 538 578T534 600T510 612T463 620V650H690V620Z"  />
<glyph unicode="W" horiz-adv-x="972" d="M958 621Q932 617 917 613T890 598T870 569T850 520Q833 471 791 336T685 -10H650Q629 49 607 112T563 238T518 362T477 478H475Q433 348 393 229T315 -10H279Q240 126 199 257T116 522Q107 552 99 570T79 599T53 613T16 621V650H268V621Q240 618 225 614T205 602T200 582T207 551Q236 452 265 354T326 152H328Q367 277 407 398T486 641H519Q561 519 604 399T692 151H694Q710 200 727 257T759 369T786 468T804 540Q809 562 810 576T805 599T782 613T735 621V650H958V621Z"  />
<glyph unicode="X" horiz-adv-x="661" d="M390 0V29Q413 32 426 35T444 45T447 59T438 80Q421 108 390 159T311 288Q275 233 245 183T191 90Q182 74 179 64T181 47T201 36T240 29V0H7V29Q50 34 76 46T124 86Q144 111 185 168T288 321Q249 384 215 438T152 539Q137 562 126 576T101 600T70 613T25 621V650H281V621Q237 615 231 606T235 578Q258 538 285 495T345 401Q375 446 398 484T442 559Q460 591 452 602T395 621V650H626V621Q599 618 581 614T547 601T519 580T489 545Q471 522 443 482T367 369Q409 303 448 240T526 119Q543 93 556 77T585 51T618 37T663 29V0H390Z"  />
<glyph unicode="Y" horiz-adv-x="638" d="M625 621Q599 618 583 614T555 601T531 578T506 541Q489 514 475 490T445 441T415 387T381 326Q371 306 368 294T365 262V127Q365 95 367 77T380 49T410 35T464 29V0H174V29Q207 31 226 35T255 48T268 76T271 127V256Q271 272 267 283T251 315Q226 360 197 412T126 536Q111 561 100 577T78 602T52 615T15 621V650H263V621Q236 617 223 613T205 603T203 588T213 566Q244 507 278 448T344 332Q357 356 373 385T405 445T435 503T460 555Q468 573 471 584T468 603T447 614T402 621V650H625V621Z"  />
<glyph unicode="Z" horiz-adv-x="606" d="M594 172Q591 158 587 135T577 87T566 39T557 0H38L29 15Q133 164 236 312T442 612H278Q237 612 213 610T174 604T151 594T137 577Q128 563 119 542T102 488L72 489Q75 539 78 589T84 675H108Q118 657 128 654T162 650H562L569 636Q466 487 366 342T164 43Q188 40 228 39T319 37Q363 37 394 38T446 44T482 55T507 74Q523 91 536 116T563 179L594 172Z"  />
<glyph unicode="[" horiz-adv-x="346" d="M119 -163V703H292V674Q253 671 231 667T199 654T186 628T184 582V-42Q184 -71 186 -88T198 -114T230 -127T292 -134V-163H119Z"  />
<glyph unicode="\" horiz-adv-x="333" d="M241 -44L35 665H93L300 -44H241Z"  />
<glyph unicode="]" horiz-adv-x="346" d="M54 -163V-134Q94 -130 116 -126T148 -113T161 -87T163 -41V582Q163 611 161 628T149 654T116 667T54 674V703H227V-163H54Z"  />
<glyph unicode="^" horiz-adv-x="565" d="M436 211L281 555L125 211H67L259 623H306L498 211H436Z"  />
<glyph unicode="_" horiz-adv-x="500" d="M0 -125V-75H500V-125H0Z"  />
<glyph unicode="`" horiz-adv-x="400" d="M218 490Q185 535 152 579T99 650L102 659Q106 661 117 664T141 669T166 673T184 673Q191 655 199 634T215 591T231 546T246 504L218 490Z"  />
<glyph unicode="a" horiz-adv-x="444" d="M349 -12Q336 -12 322 -6T300 8Q282 26 276 51Q261 41 245 30T214 10T184 -6T160 -12Q133 -12 110 -2T71 26T46 65T37 111Q37 149 56 172T117 209Q139 217 163 225T209 243T248 260T273 275V295Q273 348 251 376T193 405Q166 405 150 386Q133 366 121 319Q114 294 89 294Q82 294 74 297T58 307T47 321T42 338Q42 350 51 359T75 380Q86 388 103 398T141 419T184 437T228 450Q251 450 273 444T312 423Q340 400 349 370T359 298V116Q359 82 369 70T393 57Q402 57 411 60T429 67L439 40L349 -12ZM273 240Q265 236 254 231T232 220T209 209T189 200Q161 186 146 171T131 127Q131 107 137 93T154 70T176 56T200 51Q218 51 238 60T273 83V240Z"  />
<glyph unicode="b" horiz-adv-x="513" d="M233 438Q247 445 257 447T278 450Q319 450 355 434T419 389T461 322T477 239Q477 184 457 138T402 59T321 7T224 -12Q191 -12 153 -4T72 24V577Q72 600 71 613T63 634T43 645T7 651V675Q25 677 45 681T85 689T125 699T160 710V407L233 438ZM160 115Q160 104 161 96T165 80Q168 73 174 64T191 47T216 33T249 27Q309 26 344 75T379 213Q379 256 367 289T335 346T288 380T231 392Q212 392 193 388T160 376V115Z"  />
<glyph unicode="c" horiz-adv-x="423" d="M410 91Q376 46 331 17T240 -12Q192 -12 154 5T90 52T50 119T36 198Q36 255 61 304T137 392Q178 424 220 437T291 450Q321 450 344 442T379 424Q390 416 393 409T396 393Q396 376 383 362T361 347Q353 347 342 358Q317 381 292 391T241 401Q218 401 197 391T160 362T135 313T125 244Q125 192 140 157T179 101T228 70T274 60Q306 60 332 71T392 113L410 91Z"  />
<glyph unicode="d" horiz-adv-x="531" d="M522 26Q513 24 496 21T456 14T408 3T359 -12V52L298 15Q270 -2 252 -7T225 -12Q195 -12 162 1T101 42T55 109T37 202Q37 254 58 299T114 377T197 430T297 450Q307 450 324 448T359 440V578Q359 602 357 615T348 635T325 645T284 650V675Q304 678 326 682T370 690T412 700T447 710V117Q447 97 448 86T454 68T468 59T491 55L522 52V26ZM359 360Q342 386 315 399T262 412Q246 412 224 404T183 376T150 320T136 229Q136 184 148 151T180 96T223 64T270 53Q295 53 318 62T359 84V360Z"  />
<glyph unicode="e" horiz-adv-x="427" d="M399 87Q375 57 351 38T305 7T264 -8T233 -12Q186 -12 150 5T88 52T49 120T36 201Q36 254 54 299T103 377Q135 412 173 431T251 450Q283 450 311 437T359 403T391 354T403 296Q403 281 399 274T379 263Q373 262 349 260T288 256T209 251T122 247Q123 198 136 163T170 105T217 71T269 60Q330 60 383 109L399 87ZM228 413Q195 413 167 382T128 289Q205 289 288 292Q311 292 311 312Q311 331 306 349T290 382T263 404T228 413Z"  />
<glyph unicode="f" horiz-adv-x="303" d="M99 438V460Q99 504 110 539Q113 547 118 560T132 588T155 621T189 657Q216 680 243 693T301 710Q327 709 347 700T380 677Q388 669 389 659T386 640Q381 627 365 614Q351 602 337 616Q321 631 300 643T255 656Q237 656 226 648T206 627Q197 613 191 577T187 477V438H305Q309 431 306 417T294 397H187V109Q187 82 189 67T200 44T226 33T272 26V0H30V27Q54 29 67 32T88 43T97 65T99 104V397H30L26 408L54 438H99Z"  />
<glyph unicode="g" horiz-adv-x="472" d="M473 430Q467 418 454 402T429 378L372 381Q386 365 393 343T401 294Q401 254 386 224T345 175T288 145T223 135Q210 135 197 136T172 140Q163 133 155 122T146 101Q146 87 160 75T208 62Q235 62 260 63T312 64Q335 64 360 60T407 42T443 6T457 -55Q457 -94 436 -130T380 -194T300 -238T204 -255Q161 -255 129 -244T74 -216T41 -176T29 -132Q28 -115 35 -102T54 -77Q70 -62 93 -43T135 -10Q108 -2 90 13T61 45Q54 56 51 68T49 89Q81 100 104 118T140 150Q104 165 78 199T51 284Q51 327 68 358T112 409T171 440T233 450Q283 450 330 424Q368 426 404 430T468 438L473 430ZM223 419Q192 419 168 389T144 300Q144 243 168 206T234 168Q266 169 289 198T312 286Q312 343 289 381T223 419ZM242 -13Q206 -13 187 -18T154 -34Q137 -50 125 -68T113 -107Q113 -127 123 -144T150 -175T192 -195T244 -203Q313 -203 348 -172T384 -95Q384 -69 372 -51T337 -25Q317 -17 296 -15T242 -13Z"  />
<glyph unicode="h" horiz-adv-x="537" d="M301 0V27Q322 29 334 32T353 43T362 65T364 103V270Q364 332 341 361T271 390Q244 390 218 378T172 343V103Q172 79 174 65T182 44T200 33T234 27V0H17V27Q39 29 52 32T73 43T83 65T85 104V579Q85 602 84 615T76 636T56 646T19 651V675Q56 680 98 690T172 710V379Q185 392 201 405T236 428T274 444T314 450Q376 450 414 410T452 280V103Q452 79 454 65T462 43T482 32T516 27V0H301Z"  />
<glyph unicode="i" horiz-adv-x="273" d="M138 533Q116 533 100 549T84 587Q84 611 100 627T139 643Q161 643 176 627T192 587Q192 565 177 549T138 533ZM31 0V27Q54 29 68 32T89 44T98 66T100 107V312Q100 336 99 349T91 370T73 381T39 388V413Q118 425 188 451V107Q188 81 190 67T199 44T220 33T258 27V0H31Z"  />
<glyph unicode="j" horiz-adv-x="262" d="M137 533Q115 533 100 549T84 587Q84 611 99 627T138 643Q161 643 176 627T191 587Q191 565 176 549T137 533ZM34 413Q75 418 114 428T188 451V115Q188 64 183 28T164 -47Q150 -84 133 -116T97 -175T64 -218T39 -243Q24 -255 12 -255Q1 -255 -12 -242T-25 -209Q-25 -189 -3 -185Q52 -174 70 -150Q86 -129 92 -78Q97 -44 98 2T100 114V308Q100 333 98 347T90 370T70 381T34 389V413Z"  />
<glyph unicode="k" horiz-adv-x="499" d="M373 -2Q357 16 338 39T298 89T256 143T215 196Q198 218 186 218Q181 218 172 215V105Q172 80 174 66T183 44T205 33T243 27V0H13V27Q38 29 52 32T73 44T83 66T85 105V576Q85 600 84 614T75 635T55 646T20 651V675Q56 680 97 689T172 710V242Q194 247 208 256T234 277Q251 294 270 319T302 365Q316 387 312 395T272 408V435L478 444V418Q453 414 435 410T403 399T376 383T350 360Q340 351 332 342T314 323T293 299T267 267Q275 255 295 230T339 176T385 121T420 81Q446 53 467 41T517 27V0L373 -2Z"  />
<glyph unicode="l" horiz-adv-x="258" d="M14 0V27Q38 30 52 33T73 44T83 66T85 105V576Q85 601 83 615T74 636T54 646T17 651V675Q57 680 100 690T172 710V105Q172 80 174 66T183 44T205 33T244 27V0H14Z"  />
<glyph unicode="m" horiz-adv-x="823" d="M584 0V27Q605 29 618 32T638 43T647 66T650 107V275Q650 387 566 387Q540 387 514 375T460 339Q462 330 462 321T463 297V101Q463 78 465 64T474 43T493 32T525 27V0H308V27Q330 29 343 32T364 42T373 64T375 102V276Q375 388 291 388Q263 388 237 373T188 339V102Q188 78 190 65T198 44T214 33T243 27V0H27V27Q51 29 65 32T87 43T97 65T100 104V311Q100 335 99 348T92 369T74 381T41 388V412Q74 418 112 428T187 453V372Q203 383 219 395T258 422Q278 435 297 442T341 450Q378 450 407 428T452 368Q474 385 494 398T533 424Q550 435 569 442T609 450Q669 450 703 410T738 296V103Q738 78 740 64T748 43T767 33T801 27V0H584Z"  />
<glyph unicode="n" horiz-adv-x="550" d="M315 0V27Q336 29 348 32T367 44T376 68T378 110V277Q378 330 358 359T291 388Q263 388 237 374T188 340V104Q188 79 190 65T198 43T216 32T250 27V0H29V27Q54 30 68 33T89 44T98 66T100 105V312Q100 336 98 349T90 369T73 380T41 388V412Q79 419 116 429T188 453V374Q203 385 219 396T254 420Q276 434 295 442T336 450Q396 450 430 410T465 297V104Q465 79 467 65T475 43T494 33T528 27V0H315Z"  />
<glyph unicode="o" horiz-adv-x="513" d="M259 450Q306 450 346 433T415 385T460 314T477 227Q477 166 457 121T406 47T335 3T258 -12Q205 -12 164 7T95 57T51 128T36 209Q36 271 57 316T112 391T184 435T259 450ZM247 416Q225 416 206 405T171 372T147 318T138 242Q138 195 147 155T173 85T215 39T269 22Q290 22 309 30T343 60T366 116T375 203Q375 248 367 287T342 354T302 399T247 416Z"  />
<glyph unicode="p" horiz-adv-x="528" d="M265 434Q279 442 292 446T315 450Q357 450 390 434T446 392T481 331T493 260Q493 204 473 158T418 78T338 20T244 -12Q223 -11 205 -6T177 5V-126Q177 -153 179 -168T190 -192T215 -204T261 -210V-238H17V-210Q41 -208 55 -205T76 -194T86 -172T89 -134V318Q89 342 88 355T79 375T59 385T24 391V416Q58 422 98 434T177 460V382L265 434ZM177 76Q193 59 218 48T268 37Q328 37 364 86T400 220Q400 261 389 292T360 345T319 376T270 387Q247 387 222 375T177 348V76Z"  />
<glyph unicode="q" horiz-adv-x="516" d="M272 -240V-212Q301 -209 317 -206T342 -195T353 -172T356 -131V28L255 -12Q199 -12 158 7T90 56T50 124T37 198Q37 252 59 298T119 378T205 431T307 450Q334 448 351 444T377 437Q387 433 392 432T405 432Q410 432 419 434T442 443L446 439Q446 431 446 423T445 404T444 375T443 333V-132Q443 -158 445 -172T455 -195T477 -206T518 -212V-240H272ZM356 368Q339 388 313 399T264 410Q240 410 217 399T176 366T147 310T136 231Q136 186 150 152T186 93T235 57T289 45Q310 45 326 49T356 60V368Z"  />
<glyph unicode="r" horiz-adv-x="377" d="M190 344Q202 364 215 383T244 417T275 441T309 450Q336 450 352 434T369 398Q369 381 360 367T334 344Q317 337 307 347Q286 367 263 367Q245 367 225 348T188 288V104Q188 80 190 66T200 44T224 33T270 27V0H32V27Q55 29 68 32T89 43T98 65T100 104V313Q100 337 99 350T91 371T73 382T40 389V412Q78 418 114 427T188 452V344H190Z"  />
<glyph unicode="s" horiz-adv-x="370" d="M296 318Q281 363 256 390T193 417Q166 417 149 399T131 351Q131 319 154 300T213 266Q271 242 306 212T341 128Q341 93 327 67T288 24T234 -3T174 -12Q135 -12 103 -1T57 22Q54 27 52 41T47 73T42 110T40 143L68 147Q75 123 86 100T114 60T149 33T192 22Q219 22 239 40T260 89Q260 121 241 140T182 179Q160 189 138 201T97 229T67 267T55 318Q55 345 66 369T97 411T146 439T210 450Q242 450 263 445T301 432Q304 424 307 410T314 379T319 349T323 325L296 318Z"  />
<glyph unicode="t" horiz-adv-x="311" d="M233 1Q208 -12 192 -12Q142 -12 116 17T89 108V397H21L17 408L44 438H89V511L163 579L176 576V438H287Q295 430 293 417T281 397H176V142Q176 112 181 94T196 65T215 52T235 48Q252 48 267 53T294 63L303 36L233 1Z"  />
<glyph unicode="u" horiz-adv-x="535" d="M522 24Q486 19 447 9T369 -12L362 -6V63Q345 50 329 38T293 14Q271 1 253 -5T214 -12Q188 -12 165 -4T125 23T99 69T89 136V333Q89 354 88 366T80 384T62 394T28 402V427Q101 431 180 445Q178 420 177 384T176 298V162Q176 130 183 109T202 76T229 58T261 53Q316 53 362 98V333Q362 354 360 366T351 385T328 395T287 402V427Q327 429 367 433T450 445V113Q450 94 452 83T459 65T473 56T496 52L522 50V24Z"  />
<glyph unicode="v" horiz-adv-x="463" d="M478 411Q458 408 446 405T425 393T409 372T391 337Q365 280 328 191T249 -11H220Q185 80 151 166T81 340Q72 361 66 373T51 393T30 404T-3 411V438H210V411Q190 408 179 405T165 396T162 380T170 355Q179 329 191 298T215 234T239 171T261 115Q273 143 285 174T308 235T329 294T347 347Q358 381 350 393T300 411V438H478V411Z"  />
<glyph unicode="w" horiz-adv-x="685" d="M697 411Q678 408 666 404T646 392T632 371T618 338Q594 276 563 184T496 -11H466Q436 69 406 143T345 294Q316 219 287 145T228 -11H197Q170 80 141 168T81 346Q75 365 69 377T56 395T37 405T8 411V438H222V411Q199 408 187 404T169 394T165 378T171 352Q188 296 206 240T242 126H244Q272 198 299 273T358 433H386Q414 356 444 279T505 123H507Q515 147 524 175T541 233T558 291T573 346Q577 364 577 375T572 393T553 404T515 411V438H697V411Z"  />
<glyph unicode="x" horiz-adv-x="473" d="M258 0V27Q289 32 296 40T290 68L220 180Q203 156 188 130T158 78Q144 53 149 43T192 27V0H5V27Q27 30 42 34T68 45T91 63T116 93Q137 118 157 147T200 210L113 348Q102 366 93 377T74 395T51 405T16 411V438H222V411Q191 406 186 398T195 369L252 280Q267 302 281 324T308 370Q321 393 315 400T276 411V438H459V411Q436 409 422 406T396 398T374 383T351 359Q335 340 317 314T272 250L370 101Q383 80 394 67T416 46T442 34T478 27V0H258Z"  />
<glyph unicode="y" horiz-adv-x="460" d="M479 412Q459 409 447 405T426 394T409 373T391 339Q382 319 371 293T346 231T312 149T267 42Q242 -18 225 -60T197 -134T178 -187T164 -230Q160 -245 151 -250T131 -255Q110 -255 91 -240T72 -204Q72 -192 78 -184T98 -167Q123 -152 140 -133T174 -81Q187 -58 193 -43T203 -18Q210 3 201 28Q185 73 169 117T137 203T108 279T84 339Q76 358 70 371T54 392T33 404T0 412V438H211V412Q176 406 169 396T172 358L261 112Q271 137 283 169T308 235T330 300T349 355Q358 383 349 394T298 412V438H479V412Z"  />
<glyph unicode="z" horiz-adv-x="424" d="M417 128Q406 96 394 63T371 0H37L29 15Q94 112 154 207T275 403H192Q165 403 148 400T119 389T98 366T78 331L63 303L37 313Q46 343 56 385T72 460H94Q99 448 110 443T150 438H382L389 424Q328 327 269 232T149 35H242Q270 35 289 39T324 52T351 77T377 116L391 141L417 128Z"  />
<glyph unicode="{" horiz-adv-x="349" d="M296 -169Q272 -169 246 -165T198 -148T161 -108T146 -38Q146 15 150 67T154 168Q154 181 152 195T141 222T114 244T63 255V285Q96 288 114 297T141 318T152 344T154 372Q154 423 150 475T146 575Q146 620 160 646T197 687T246 705T296 709V679Q268 676 251 667T225 645T214 617T211 585Q211 537 217 487T224 388Q224 346 205 315T140 272V268Q185 258 204 226T224 152Q224 103 218 54T211 -41Q211 -59 213 -75T225 -104T251 -126T296 -139V-169Z"  />
<glyph unicode="|" horiz-adv-x="264" d="M98 -250V750H166V-250H98Z"  />
<glyph unicode="}" horiz-adv-x="349" d="M286 255Q253 253 235 244T208 221T197 193T195 163Q195 118 199 67T203 -39Q203 -81 189 -106T152 -146T103 -164T53 -169V-139Q80 -135 97 -126T123 -105T135 -77T138 -44Q138 2 132 52T125 151Q125 193 144 225T210 268V272Q164 283 145 315T125 388Q125 437 131 487T138 586Q138 603 135 618T123 646T97 667T53 680V709Q77 709 103 705T152 688T188 649T203 579Q203 525 199 474T195 377Q195 362 197 347T207 319T234 297T286 285V255Z"  />
<glyph unicode="~" horiz-adv-x="579" d="M526 288Q509 236 477 208T397 179Q362 179 330 193T271 223Q246 238 226 246T182 255Q151 255 130 235T91 172L54 199Q69 234 86 255T120 288T155 303T186 307Q216 307 242 298T301 269Q330 252 354 242T404 231Q433 231 453 250T488 311L526 288Z"  />
<glyph unicode="&#xA0;" horiz-adv-x="225" />
<glyph unicode="&#xA1;" horiz-adv-x="277" d="M138 448Q164 448 181 431T198 386Q198 359 181 342T138 324Q112 324 95 341T78 386Q78 414 95 431T138 448ZM139 -228Q107 -228 94 -220T80 -195Q80 -183 82 -166T88 -118Q99 -32 106 54T121 236Q122 239 127 240T139 242T151 241T158 236Q166 141 172 55T190 -118Q194 -148 196 -165T198 -195Q198 -228 139 -228Z"  />
<glyph unicode="&#xA2;" horiz-adv-x="483" d="M438 197Q408 157 368 131T289 99V1H253V96Q207 97 170 114T106 160T65 224T50 299Q50 356 76 403T145 482Q172 503 201 515T253 532V615H289V536Q295 537 298 537T307 537Q337 537 364 530T407 511Q415 506 418 499T421 485Q421 468 409 455T385 441Q378 441 369 450Q352 468 333 479T289 493V164Q330 163 360 177T421 221L438 197ZM253 494Q234 493 214 485T176 458T147 410T135 340Q135 298 146 268T174 217T212 184T253 168V494Z"  />
<glyph unicode="&#xA3;" horiz-adv-x="483" d="M213 294Q214 288 214 283T214 273Q214 221 189 180T123 104Q150 104 175 97T228 78Q260 64 292 52T351 39Q378 39 392 50T406 81Q406 91 404 99T399 115Q393 125 401 137Q409 148 418 155T438 163Q449 163 455 150T462 122Q462 105 455 88T437 56T411 27T383 5Q362 -9 339 -18T290 -27Q259 -27 224 -10T155 27Q132 40 119 45T94 51Q85 51 75 42T54 9Q51 -5 42 -5Q31 -5 24 7T28 42Q35 56 49 73T78 106Q103 134 111 171T120 237Q120 256 119 269T116 294H27V333H111Q109 353 107 373T105 415Q105 463 123 507T190 590Q214 609 244 621T297 635Q332 635 358 621T394 594Q406 578 397 561Q394 555 388 549T377 537Q363 528 349 540Q329 556 307 569T254 583Q188 583 188 493Q188 458 195 417T210 333H380V294H213Z"  />
<glyph unicode="&#xA4;" horiz-adv-x="483" d="M409 93L345 168Q322 149 294 140T239 130Q213 130 184 139T132 168L68 93L26 135L95 202Q74 228 64 259T53 325Q53 359 63 390T96 447L26 515L68 556L133 481Q156 501 184 510T240 519Q265 519 293 510T346 482L409 556L452 515L383 447Q403 423 414 391T426 325Q426 291 415 259T382 202L452 135L409 93ZM240 467Q214 467 192 457T153 428T127 383T118 325Q118 260 153 221T240 182Q292 182 326 221T361 325Q361 356 352 382T327 427T288 456T240 467Z"  />
<glyph unicode="&#xA5;" horiz-adv-x="483" d="M470 596Q450 593 438 589T416 578T398 558T379 525Q361 493 339 448T283 333H397V295H276V226H397V189H276V112Q276 85 278 70T289 46T315 34T363 28V0H103V28Q133 30 150 33T175 45T186 69T188 112V189H71V226H188V295H71V333H177Q159 377 138 421T90 524Q79 546 72 559T55 579T35 590T7 596V623H218V596L192 591Q172 586 168 580T169 558Q176 538 187 513T210 460T234 406T256 354Q266 374 278 400T302 454T324 505T341 544Q349 566 346 575T319 590L291 596V623H470V596Z"  />
<glyph unicode="&#xA6;" horiz-adv-x="264" d="M98 325V675H166V325H98ZM98 -175V175H166V-175H98Z"  />
<glyph unicode="&#xA7;" horiz-adv-x="477" d="M426 203Q426 171 417 141T394 84T362 32T328 -11Q293 -48 260 -70T187 -104Q175 -104 154 -99T118 -82Q98 -65 98 -52Q98 -43 106 -33T121 -17Q132 -9 143 -14Q149 -19 170 -30T222 -42Q246 -42 267 -28T289 15Q290 35 276 57T223 115Q200 137 173 165T123 215Q93 244 73 283T52 367Q52 418 75 463T132 543Q169 583 202 606T283 641Q303 641 321 634T350 618Q362 606 362 594Q362 582 355 573T342 560Q339 558 334 556T323 559Q315 566 294 576T245 586Q213 586 199 569T184 536Q183 521 191 505T221 469Q245 447 275 422T331 374Q350 358 367 340T398 301T418 256T426 203ZM104 414Q104 372 124 335T192 252Q247 202 275 173T314 126Q323 112 329 90T334 48L336 47Q353 73 363 100T373 158Q373 191 356 227T291 306Q279 317 264 331T233 359T203 386T181 407Q164 424 151 450T141 505L138 506Q122 485 113 463T104 414Z"  />
<glyph unicode="&#xA8;" horiz-adv-x="400" d="M112 535Q92 535 77 550T61 586Q61 609 76 624T113 639Q134 639 149 624T164 586Q164 565 149 550T112 535ZM287 535Q267 535 252 550T236 586Q236 609 251 624T288 639Q309 639 324 624T339 586Q339 565 324 550T287 535Z"  />
<glyph unicode="&#xA9;" horiz-adv-x="701" d="M351 627Q415 627 470 603T566 538T629 442T652 322Q652 259 630 204T567 108T471 43T351 19Q286 19 231 43T135 108T72 204T49 322Q49 385 72 441T135 538T231 603T351 627ZM351 591Q296 591 250 571T169 514T116 429T97 323Q97 266 116 217T169 132T249 75T351 54Q406 54 452 75T532 132T585 217T604 323Q604 380 585 429T533 514T453 570T351 591ZM503 257Q500 247 497 235T491 210T484 186T477 168Q462 163 433 156T372 149Q324 149 288 164T229 203T194 257T182 320Q182 362 198 395T240 450T302 485T376 497Q414 497 440 491T481 479Q483 459 485 439T492 389L470 385Q456 426 433 447T370 468Q317 468 288 428T258 327Q258 294 267 267T291 220T328 190T373 179Q414 179 438 201T480 262L503 257Z"  />
<glyph unicode="&#xAA;" horiz-adv-x="310" d="M234 270Q214 271 203 282T187 308Q167 295 146 283T111 270Q76 270 54 293T32 346Q32 390 82 408Q93 412 107 417T137 428T165 439T186 451V462Q186 486 173 500T138 515Q121 515 110 501T91 463Q85 446 70 446Q59 446 48 455T36 476Q36 491 57 504Q63 508 74 514T98 527T127 539T157 547Q199 547 223 526T247 459V351Q247 331 254 324T269 317Q280 317 292 323L299 303L234 270ZM186 424Q176 419 158 411T128 398Q114 390 107 382T99 358Q99 337 113 326T142 314Q156 314 167 320T186 333V424Z"  />
<glyph unicode="&#xAB;" horiz-adv-x="446" d="M207 37Q162 96 120 145T49 222Q78 251 120 299T207 407L231 392L140 222L231 53L207 37ZM375 37Q328 96 286 145T217 222Q245 251 287 299T375 407L399 392L308 222L399 53L375 37Z"  />
<glyph unicode="&#xAC;" horiz-adv-x="579" d="M468 98V317H51V369H529V98H468Z"  />
<glyph unicode="&#xAD;" horiz-adv-x="353" d="M286 197H54L68 255H300L286 197Z"  />
<glyph unicode="&#xAE;" horiz-adv-x="320" d="M161 659Q189 659 212 649T253 620T281 579T291 529Q291 503 281 480T254 439T213 411T161 400Q133 400 110 410T69 437T41 478T31 529Q31 555 41 578T68 620T110 648T161 659ZM161 636Q139 636 121 628T89 605T68 571T60 529Q60 506 68 487T89 454T121 431T161 423Q183 423 201 431T233 453T255 487T263 529Q263 551 255 571T234 605T202 627T161 636ZM232 461Q215 461 204 465T183 481Q176 490 172 499T165 513Q160 520 151 520H147V496Q147 482 150 480T166 477V462H98V477Q112 478 114 480T117 496V565Q117 579 115 581T99 584V599H168Q176 599 184 598T200 592T211 581T216 563Q216 550 209 542T189 529Q197 515 204 505T222 483Q229 476 235 472L232 461ZM156 535Q166 535 173 540Q184 545 184 560Q184 575 175 579T160 584Q153 584 150 582T147 572V535H156Z"  />
<glyph unicode="&#xAF;" horiz-adv-x="400" d="M88 547V605H313V547H88Z"  />
<glyph unicode="&#xB0;" horiz-adv-x="340" d="M170 664Q198 664 223 655T267 627T298 584T310 528Q310 496 299 471T268 428T223 401T170 392Q143 392 118 401T73 427T43 470T31 528Q31 559 42 584T73 627T117 654T170 664ZM171 620Q136 620 114 595T92 528Q92 486 114 461T171 435Q206 435 227 460T249 527Q249 569 228 594T171 620Z"  />
<glyph unicode="&#xB1;" horiz-adv-x="579" d="M321 310V108H260V310H51V362H260V551H321V362H529V310H321ZM51 0V52H529V0H51Z"  />
<glyph unicode="&#xB2;" horiz-adv-x="342" d="M309 492Q301 467 296 445T285 401H39V424Q61 441 90 465T145 517T189 575T208 634Q208 671 190 688T143 706Q115 706 94 689T59 652L40 670L73 715Q90 736 116 748T171 760Q193 760 213 753T249 732T274 698T283 652Q283 634 277 618T258 584T225 546T177 502L126 458V456H218Q232 456 241 457T258 463T272 476T286 499L309 492Z"  />
<glyph unicode="&#xB3;" horiz-adv-x="342" d="M206 611Q248 603 271 582T295 528Q295 493 275 468T226 427T170 402T125 394Q102 394 83 400T56 415Q41 428 45 444Q51 460 64 468Q75 476 86 467Q100 456 119 445T161 433Q186 433 204 450T222 506Q222 541 199 557T147 573Q135 573 125 571T106 566L99 592Q144 606 170 624T196 668Q196 687 183 700T146 713Q122 713 103 697T72 665L55 682L85 723Q98 737 122 748T173 759Q218 759 244 737T270 682Q270 670 265 659T250 642Q235 628 206 611Z"  />
<glyph unicode="&#xB4;" horiz-adv-x="400" d="M168 506Q175 521 184 545T204 594T221 639T232 665Q235 667 247 669T273 673T300 675T318 675L322 665L195 492L168 506Z"  />
<glyph unicode="&#xB5;" horiz-adv-x="517" d="M513 30Q501 14 477 1T424 -12Q392 -12 370 8T343 64H341Q313 32 281 10T211 -12Q185 -12 164 0T131 30H127V14Q127 -15 130 -53T139 -128T151 -196T163 -242L151 -255Q133 -253 109 -241T72 -215Q70 -209 70 -183T70 -119T70 -38T71 46V334Q71 362 70 388T67 431L157 451Q159 432 159 403T159 344V172Q159 137 167 115T188 78T216 59T247 53Q278 53 302 69T340 102V431L429 451V116Q429 75 441 61T469 47Q488 47 503 57L513 30Z"  />
<glyph unicode="&#xB6;" horiz-adv-x="501" d="M439 506L351 495V23Q351 -40 335 -83T282 -163Q270 -175 256 -184T229 -200T207 -210T193 -214Q171 -214 154 -207T126 -191Q110 -176 116 -160Q118 -152 124 -145T136 -132Q146 -125 156 -132Q189 -154 220 -154Q235 -154 249 -148T274 -125T291 -78T298 3V150L230 121Q224 118 213 118Q192 118 164 132T110 172T66 235T48 321Q48 372 67 413T116 482Q148 511 189 528T265 545H465L469 534L439 506Z"  />
<glyph unicode="&#xB7;" horiz-adv-x="231" d="M115 171Q89 171 73 188T56 233Q56 259 72 276T115 294Q141 294 158 277T176 233Q176 205 159 188T115 171Z"  />
<glyph unicode="&#xB8;" horiz-adv-x="400" d="M225 -27Q215 -39 216 -47T231 -68Q251 -88 260 -104T270 -137Q270 -169 239 -195T154 -238L141 -212Q172 -198 186 -183T201 -151Q202 -140 195 -131T178 -114Q159 -96 156 -83T168 -49L206 0H247L225 -27Z"  />
<glyph unicode="&#xB9;" horiz-adv-x="342" d="M76 401V425Q96 427 108 429T128 438T137 456T140 485V659Q140 687 135 694T104 704L75 706V730Q108 734 142 741T212 759V485Q212 467 214 456T224 439T243 430T276 425V401H76Z"  />
<glyph unicode="&#xBA;" horiz-adv-x="341" d="M171 547Q202 547 228 536T273 507T302 464T312 412Q312 377 300 351T267 306T221 279T171 270Q136 270 109 281T64 312T36 355T27 405Q27 441 41 467T76 511T122 538T171 547ZM164 519Q141 519 122 495T102 419Q102 365 123 332T175 298Q201 298 218 320T237 397Q238 451 219 485T164 519Z"  />
<glyph unicode="&#xBB;" horiz-adv-x="447" d="M73 407Q119 349 161 300T232 222Q204 194 162 145T73 37L49 53L141 222L49 391L73 407ZM240 407Q285 349 327 300T398 222Q369 194 327 145T240 37L215 53L307 222L215 391L240 407Z"  />
<glyph unicode="&#xBC;" horiz-adv-x="766" d="M79 277V301Q99 303 111 305T131 314T141 332T144 361V535Q144 563 138 570T107 580L78 582V606Q112 610 145 617T215 635V361Q215 343 217 332T227 315T246 306T279 301V277H79ZM200 -29L167 -4L572 653L605 630L200 -29ZM632 98V71Q632 57 634 48T643 34T659 27T687 23V0H502V23Q522 24 534 26T554 34T563 48T566 71V98H406V122Q451 183 497 242T590 359H632V137H691V98H632ZM566 282H564Q537 247 512 213T458 137H566V282Z"  />
<glyph unicode="&#xBD;" horiz-adv-x="767" d="M71 277V301Q91 303 104 305T124 314T133 332T136 361V535Q136 563 131 570T100 580L71 582V606Q104 610 138 617T208 635V361Q208 343 210 332T220 315T239 306T272 301V277H71ZM185 -29L153 -4L557 653L591 630L185 -29ZM708 91Q700 66 694 44T683 0H438V23Q460 40 489 64T544 116T588 174T607 233Q607 270 588 287T542 305Q514 305 493 288T457 251L439 269L472 314Q489 335 515 347T570 359Q592 359 612 352T648 331T673 297T682 251Q682 233 676 217T657 183T624 145T576 101L525 57V55H616Q630 55 640 56T657 62T671 75T685 98L708 91Z"  />
<glyph unicode="&#xBE;" horiz-adv-x="767" d="M202 -29L170 -4L574 653L608 630L202 -29ZM627 98V71Q627 57 629 48T638 34T654 27T682 23V0H497V23Q517 24 529 26T549 34T558 48T561 71V98H400V122Q445 183 491 242T585 359H627V137H685V98H627ZM561 282H558Q531 247 507 213T453 137H561V282ZM234 487Q276 479 299 458T323 404Q323 369 303 344T254 303T198 278T153 270Q130 270 111 276T84 291Q69 304 73 320Q79 335 92 345Q103 351 114 343Q128 332 147 321T189 309Q214 309 232 326T250 382Q250 417 227 433T175 449Q163 449 153 447T134 442L128 468Q173 482 198 500T224 545Q224 563 211 576T174 589Q150 589 131 573T100 541L83 558L113 599Q126 613 150 624T201 635Q246 635 272 613T298 558Q298 533 278 518Q263 504 234 487Z"  />
<glyph unicode="&#xBF;" horiz-adv-x="382" d="M194 449Q219 449 235 432T252 388Q252 362 236 345T194 328Q168 328 152 345T135 388Q135 415 151 432T194 449ZM180 243Q195 237 214 225T252 195T282 157T294 112Q294 86 275 60T207 -2Q192 -13 175 -25T142 -51T118 -79T108 -109Q108 -133 123 -146T164 -159Q188 -159 207 -151T242 -132T267 -112T282 -103Q288 -103 295 -107T309 -117T321 -133T326 -152Q326 -163 321 -171T305 -189Q281 -209 252 -218T208 -227Q177 -227 148 -214T96 -178T59 -127T45 -66Q45 -39 55 -18T94 26Q106 36 125 49T161 78T191 110T204 144Q204 167 193 183T161 219L180 243Z"  />
<glyph unicode="&#xC0;" horiz-adv-x="694" d="M423 0V29Q469 35 479 45T480 86Q471 115 458 152T428 233H218Q207 201 197 170T176 108Q168 85 167 71T171 49T194 36T238 29V0H19V29Q43 32 59 36T87 51T109 81T132 133L338 655L373 665Q420 535 469 399T566 132Q578 100 587 81T608 51T636 36T676 29V0H423ZM328 525H325Q302 462 280 400T234 277H413L328 525ZM396 684L206 747L204 755Q205 761 210 770T222 789T236 807T248 817Q290 790 330 763T409 710L396 684Z"  />
<glyph unicode="&#xC1;" horiz-adv-x="694" d="M423 0V29Q469 35 479 45T480 86Q471 115 458 152T428 233H218Q207 201 197 170T176 108Q168 85 167 71T171 49T194 36T238 29V0H19V29Q43 32 59 36T87 51T109 81T132 133L338 655L373 665Q420 535 469 399T566 132Q578 100 587 81T608 51T636 36T676 29V0H423ZM328 525H325Q302 462 280 400T234 277H413L328 525ZM505 747L316 684L304 709L463 815Q468 814 475 807T489 791T501 771T508 755L505 747Z"  />
<glyph unicode="&#xC2;" horiz-adv-x="694" d="M423 0V29Q469 35 479 45T480 86Q471 115 458 152T428 233H218Q207 201 197 170T176 108Q168 85 167 71T171 49T194 36T238 29V0H19V29Q43 32 59 36T87 51T109 81T132 133L338 655L373 665Q420 535 469 399T566 132Q578 100 587 81T608 51T636 36T676 29V0H423ZM328 525H325Q302 462 280 400T234 277H413L328 525ZM481 684Q450 697 419 713T358 746Q328 729 297 713T236 684L220 709Q252 735 285 762T347 819H370Q399 788 431 762T496 709L481 684Z"  />
<glyph unicode="&#xC3;" horiz-adv-x="694" d="M423 0V29Q469 35 479 45T480 86Q471 115 458 152T428 233H218Q207 201 197 170T176 108Q168 85 167 71T171 49T194 36T238 29V0H19V29Q43 32 59 36T87 51T109 81T132 133L338 655L373 665Q420 535 469 399T566 132Q578 100 587 81T608 51T636 36T676 29V0H423ZM328 525H325Q302 462 280 400T234 277H413L328 525ZM305 790Q319 790 331 786T367 771Q384 763 396 759T423 755Q438 755 449 766T470 798L495 784Q487 758 477 741T456 714T434 701T411 697Q394 697 378 703T342 718Q329 724 319 728T296 732Q282 732 271 721T248 688L223 706Q241 754 263 772T305 790Z"  />
<glyph unicode="&#xC4;" horiz-adv-x="694" d="M423 0V29Q469 35 479 45T480 86Q471 115 458 152T428 233H218Q207 201 197 170T176 108Q168 85 167 71T171 49T194 36T238 29V0H19V29Q43 32 59 36T87 51T109 81T132 133L338 655L373 665Q420 535 469 399T566 132Q578 100 587 81T608 51T636 36T676 29V0H423ZM328 525H325Q302 462 280 400T234 277H413L328 525ZM451 800Q473 800 488 785T503 747Q503 727 488 712T451 696Q431 696 416 711T400 747Q400 770 415 785T451 800ZM257 800Q279 800 293 785T308 747Q308 726 294 711T257 696Q237 696 222 711T206 747Q206 770 221 785T257 800Z"  />
<glyph unicode="&#xC5;" horiz-adv-x="694" d="M423 0V29Q469 35 479 45T480 86Q471 115 458 152T428 233H218Q207 201 197 170T176 108Q168 85 167 71T171 49T194 36T238 29V0H19V29Q43 32 59 36T87 51T109 81T132 133L338 655L373 665Q420 535 469 399T566 132Q578 100 587 81T608 51T636 36T676 29V0H423ZM328 525H325Q302 462 280 400T234 277H413L328 525ZM355 857Q372 857 388 851T417 834T437 808T445 772Q445 752 438 736T417 709T388 692T355 686Q338 686 322 692T294 709T274 736T266 772Q266 792 273 807T293 834T322 851T355 857ZM356 824Q336 824 324 810T311 772Q311 749 323 734T356 718Q376 718 387 733T399 772Q399 795 388 809T356 824Z"  />
<glyph unicode="&#xC6;" horiz-adv-x="871" d="M852 160Q850 148 845 126T835 80T825 34T816 0H338V29Q370 31 389 35T417 51T429 82T432 136V296H256Q239 264 226 238T202 190T182 147T163 105Q154 85 152 72T154 51T176 38T221 29V0H-11V29Q13 32 29 36T58 49T82 73T108 115Q169 224 230 340T345 562Q353 577 356 586T356 601T344 610T316 616L272 621V650H792Q792 641 793 625T795 589T798 548T802 507L771 503Q763 533 756 552T738 586Q726 601 705 607T634 613H557Q534 613 529 608T523 581V336H608Q642 336 661 338T692 348T708 371T718 412H749V216H718Q713 243 708 258T692 282T661 293T608 296H523V132Q523 92 528 74T547 48Q562 40 587 39T647 37Q698 37 726 44T771 71Q784 85 796 108T822 167L852 160ZM432 608Q427 608 421 605T404 591Q389 563 375 536T346 478T313 413T275 336H432V608Z"  />
<glyph unicode="&#xC7;" horiz-adv-x="664" d="M645 168Q640 149 633 127T619 84T604 43T591 12Q581 10 563 6T523 -2T475 -9T425 -13L414 -27Q404 -39 406 -47T420 -68Q440 -89 449 -104T458 -137Q458 -167 428 -194T343 -239L329 -211Q359 -197 374 -182T390 -151Q390 -140 383 -131T367 -114Q349 -95 346 -82T356 -51L384 -14Q295 -11 231 19T126 96T65 200T45 315Q45 393 73 457T152 567T273 639T428 665Q492 665 538 655T606 639Q612 596 617 561T627 482L595 476Q583 517 567 545T527 592T472 618T401 626Q345 626 300 604T224 542T175 451T158 337Q158 269 175 212T226 114T305 49T408 25Q446 25 476 34T530 63T575 112T615 179L645 168Z"  />
<glyph unicode="&#xC8;" horiz-adv-x="570" d="M550 159Q548 146 544 124T534 78T524 33T516 0H28V29Q62 32 81 36T111 49T124 77T127 126V521Q127 554 125 573T113 601T87 614T42 621V650H492Q492 641 493 625T495 588T497 547T501 505L470 500Q463 531 455 550T437 585Q426 602 402 608T326 614H255Q231 614 226 609T220 581V356H310Q343 356 362 358T393 368T408 391T418 431H448V238H418Q413 265 408 280T392 303T362 313T310 315H220V130Q220 95 225 76T244 48Q258 39 284 38T346 36Q373 36 392 37T426 43T450 53T469 69Q483 85 496 109T520 164L550 159ZM337 684L147 747L145 755Q146 761 151 770T164 789T178 807T190 817Q231 790 271 763T351 710L337 684Z"  />
<glyph unicode="&#xC9;" horiz-adv-x="570" d="M550 159Q548 146 544 124T534 78T524 33T516 0H28V29Q62 32 81 36T111 49T124 77T127 126V521Q127 554 125 573T113 601T87 614T42 621V650H492Q492 641 493 625T495 588T497 547T501 505L470 500Q463 531 455 550T437 585Q426 602 402 608T326 614H255Q231 614 226 609T220 581V356H310Q343 356 362 358T393 368T408 391T418 431H448V238H418Q413 265 408 280T392 303T362 313T310 315H220V130Q220 95 225 76T244 48Q258 39 284 38T346 36Q373 36 392 37T426 43T450 53T469 69Q483 85 496 109T520 164L550 159ZM433 747L244 684L231 709Q272 736 313 763T391 815Q396 814 403 807T416 791T428 771T435 755L433 747Z"  />
<glyph unicode="&#xCA;" horiz-adv-x="570" d="M550 159Q548 146 544 124T534 78T524 33T516 0H28V29Q62 32 81 36T111 49T124 77T127 126V521Q127 554 125 573T113 601T87 614T42 621V650H492Q492 641 493 625T495 588T497 547T501 505L470 500Q463 531 455 550T437 585Q426 602 402 608T326 614H255Q231 614 226 609T220 581V356H310Q343 356 362 358T393 368T408 391T418 431H448V238H418Q413 265 408 280T392 303T362 313T310 315H220V130Q220 95 225 76T244 48Q258 39 284 38T346 36Q373 36 392 37T426 43T450 53T469 69Q483 85 496 109T520 164L550 159ZM411 684Q380 697 349 713T288 746Q258 729 228 713T166 684L150 709Q182 735 215 762T277 819H300Q329 788 362 762T427 709L411 684Z"  />
<glyph unicode="&#xCB;" horiz-adv-x="570" d="M550 159Q548 146 544 124T534 78T524 33T516 0H28V29Q62 32 81 36T111 49T124 77T127 126V521Q127 554 125 573T113 601T87 614T42 621V650H492Q492 641 493 625T495 588T497 547T501 505L470 500Q463 531 455 550T437 585Q426 602 402 608T326 614H255Q231 614 226 609T220 581V356H310Q343 356 362 358T393 368T408 391T418 431H448V238H418Q413 265 408 280T392 303T362 313T310 315H220V130Q220 95 225 76T244 48Q258 39 284 38T346 36Q373 36 392 37T426 43T450 53T469 69Q483 85 496 109T520 164L550 159ZM387 803Q410 803 424 788T439 750Q439 729 425 714T387 699Q367 699 352 714T337 750Q337 773 352 788T387 803ZM193 802Q216 802 230 788T245 750Q245 729 231 714T193 698Q173 698 158 713T142 750Q142 773 157 787T193 802Z"  />
<glyph unicode="&#xCC;" horiz-adv-x="347" d="M38 0V29Q68 31 85 34T112 48T124 76T127 126V523Q127 555 125 573T113 601T86 614T38 621V650H309V621Q279 618 262 615T235 601T223 573T220 523V126Q220 94 222 76T234 48T261 35T309 29V0H38ZM226 684L36 747L34 755Q35 761 40 770T52 789T66 807T79 817Q120 790 160 763T240 710L226 684Z"  />
<glyph unicode="&#xCD;" horiz-adv-x="347" d="M38 0V29Q68 31 85 34T112 48T124 76T127 126V523Q127 555 125 573T113 601T86 614T38 621V650H309V621Q279 618 262 615T235 601T223 573T220 523V126Q220 94 222 76T234 48T261 35T309 29V0H38ZM316 747L127 684L114 709Q155 736 196 763T274 815Q279 814 286 807T299 791T311 771T318 755L316 747Z"  />
<glyph unicode="&#xCE;" horiz-adv-x="347" d="M38 0V29Q68 31 85 34T112 48T124 76T127 126V523Q127 555 125 573T113 601T86 614T38 621V650H309V621Q279 618 262 615T235 601T223 573T220 523V126Q220 94 222 76T234 48T261 35T309 29V0H38ZM296 684Q265 697 234 713T173 746Q143 729 113 713T51 684L35 709Q67 735 100 762T162 819H185Q214 788 247 762T312 709L296 684Z"  />
<glyph unicode="&#xCF;" horiz-adv-x="347" d="M38 0V29Q68 31 85 34T112 48T124 76T127 126V523Q127 555 125 573T113 601T86 614T38 621V650H309V621Q279 618 262 615T235 601T223 573T220 523V126Q220 94 222 76T234 48T261 35T309 29V0H38ZM271 800Q293 800 307 786T322 748Q322 727 308 712T271 696Q250 696 235 711T220 748Q220 771 235 785T271 800ZM76 800Q99 800 113 785T128 747Q128 727 114 712T76 696Q56 696 41 711T25 747Q25 770 40 785T76 800Z"  />
<glyph unicode="&#xD0;" horiz-adv-x="741" d="M333 650Q422 650 491 631T611 564Q649 528 673 474T697 350Q697 259 664 193T572 83Q514 39 442 20T279 0H45V29Q77 31 95 35T123 50T135 81T138 137V319H38V362H138V513Q138 548 136 568T125 600T99 615T53 621V650H333ZM232 133Q232 108 235 90T248 61T276 45T326 39Q392 39 441 62T523 125T572 219T588 334Q588 415 561 476T480 573Q451 593 410 604T320 615Q288 615 270 612T244 604Q237 600 235 591T232 560V362H386V319H232V133Z"  />
<glyph unicode="&#xD1;" horiz-adv-x="743" d="M720 621Q678 619 659 607T636 561Q634 538 632 500T630 393V-9H596L172 510H170V264Q170 195 172 157T176 96Q178 78 183 66T200 46T228 34T272 29V0H34V29Q77 32 97 45T121 94Q123 117 125 156T128 264V482Q128 509 128 524T125 550T118 568T107 584Q92 603 73 610T19 621V650H174L585 160H588V393Q588 462 586 499T581 559Q577 592 556 605T482 621V650H720V621ZM324 790Q338 790 350 786T386 771Q403 763 415 759T442 755Q457 755 468 766T489 797L514 783Q497 731 475 714T430 696Q414 696 398 702T361 718Q348 723 339 727T315 732Q301 732 290 721T267 688L242 706Q261 754 282 772T324 790Z"  />
<glyph unicode="&#xD2;" horiz-adv-x="750" d="M382 665Q447 665 506 641T609 574T680 469T707 333Q707 252 681 188T608 78T501 9T371 -15Q302 -15 242 10T138 80T69 186T43 319Q43 386 66 448T132 559T239 636T382 665ZM362 628Q321 628 284 610T218 556T172 467T155 345Q155 276 172 217T221 115T296 47T392 22Q432 22 469 39T534 92T578 181T595 306Q595 384 577 444T527 545T453 607T362 628ZM433 692L243 755L241 763Q242 769 247 778T260 798T274 815T286 825Q327 799 367 772T447 718L433 692Z"  />
<glyph unicode="&#xD3;" horiz-adv-x="750" d="M382 665Q447 665 506 641T609 574T680 469T707 333Q707 252 681 188T608 78T501 9T371 -15Q302 -15 242 10T138 80T69 186T43 319Q43 386 66 448T132 559T239 636T382 665ZM362 628Q321 628 284 610T218 556T172 467T155 345Q155 276 172 217T221 115T296 47T392 22Q432 22 469 39T534 92T578 181T595 306Q595 384 577 444T527 545T453 607T362 628ZM506 755L318 691L305 717Q346 743 387 771T465 822Q470 821 477 814T490 798T502 779T509 763L506 755Z"  />
<glyph unicode="&#xD4;" horiz-adv-x="750" d="M382 665Q447 665 506 641T609 574T680 469T707 333Q707 252 681 188T608 78T501 9T371 -15Q302 -15 242 10T138 80T69 186T43 319Q43 386 66 448T132 559T239 636T382 665ZM362 628Q321 628 284 610T218 556T172 467T155 345Q155 276 172 217T221 115T296 47T392 22Q432 22 469 39T534 92T578 181T595 306Q595 384 577 444T527 545T453 607T362 628ZM497 691Q466 705 435 720T374 753Q344 737 314 721T252 691L236 717Q268 742 301 769T363 827H386Q415 795 448 769T513 717L497 691Z"  />
<glyph unicode="&#xD5;" horiz-adv-x="750" d="M382 665Q447 665 506 641T609 574T680 469T707 333Q707 252 681 188T608 78T501 9T371 -15Q302 -15 242 10T138 80T69 186T43 319Q43 386 66 448T132 559T239 636T382 665ZM362 628Q321 628 284 610T218 556T172 467T155 345Q155 276 172 217T221 115T296 47T392 22Q432 22 469 39T534 92T578 181T595 306Q595 384 577 444T527 545T453 607T362 628ZM324 799Q338 799 350 795T386 780Q403 772 415 768T442 764Q457 764 467 775T488 806L514 792Q497 740 474 723T430 705Q413 705 397 711T360 727Q348 732 338 736T315 741Q289 741 267 697L242 714Q260 763 282 781T324 799Z"  />
<glyph unicode="&#xD6;" horiz-adv-x="750" d="M382 665Q447 665 506 641T609 574T680 469T707 333Q707 252 681 188T608 78T501 9T371 -15Q302 -15 242 10T138 80T69 186T43 319Q43 386 66 448T132 559T239 636T382 665ZM362 628Q321 628 284 610T218 556T172 467T155 345Q155 276 172 217T221 115T296 47T392 22Q432 22 469 39T534 92T578 181T595 306Q595 384 577 444T527 545T453 607T362 628ZM471 805Q494 805 508 790T523 752Q523 731 509 716T471 701Q451 701 436 716T421 752Q421 775 436 790T471 805ZM277 804Q300 804 314 790T329 752Q329 731 315 716T277 700Q257 700 242 715T226 752Q226 775 241 789T277 804Z"  />
<glyph unicode="&#xD7;" horiz-adv-x="579" d="M482 9L290 207L97 9L60 50L250 247L60 442L97 482L290 286L482 484L521 444L328 247L521 50L482 9Z"  />
<glyph unicode="&#xD8;" horiz-adv-x="753" d="M587 599Q641 554 677 487T713 335Q713 255 687 190T615 80T507 10T374 -15Q327 -15 283 -2T202 34L145 -46L118 -22L171 55Q116 100 82 167T48 320Q48 386 71 448T139 558T247 635T391 665Q436 665 478 654T555 620L606 694L636 674L587 599ZM516 562Q487 596 450 612T369 628Q327 628 289 610T221 556T175 467T157 343Q157 279 174 223T220 126L516 562ZM244 94Q271 59 309 41T392 22Q445 22 484 43T550 103T590 193T604 306Q604 379 586 435T540 531L244 94Z"  />
<glyph unicode="&#xD9;" horiz-adv-x="735" d="M717 621Q672 617 653 605T630 562Q628 541 626 506T624 404V316Q624 229 608 165T549 55Q514 19 467 2T369 -15Q324 -15 282 -4T206 34Q161 68 140 125T119 271V518Q119 552 117 571T105 601T79 614T32 621V650H298V621Q269 619 252 616T227 602T216 572T213 518V293Q213 172 259 107T396 42Q448 42 483 62T540 120T571 209T581 323V404Q581 470 579 505T574 564Q572 578 567 588T550 605T521 615T477 621V650H717V621ZM428 684L238 747L236 755Q237 761 242 770T254 789T268 807T280 817Q322 790 362 763T441 710L428 684Z"  />
<glyph unicode="&#xDA;" horiz-adv-x="735" d="M717 621Q672 617 653 605T630 562Q628 541 626 506T624 404V316Q624 229 608 165T549 55Q514 19 467 2T369 -15Q324 -15 282 -4T206 34Q161 68 140 125T119 271V518Q119 552 117 571T105 601T79 614T32 621V650H298V621Q269 619 252 616T227 602T216 572T213 518V293Q213 172 259 107T396 42Q448 42 483 62T540 120T571 209T581 323V404Q581 470 579 505T574 564Q572 578 567 588T550 605T521 615T477 621V650H717V621ZM521 747L332 684L319 709Q360 736 401 763T479 815Q484 814 491 807T504 791T516 771T523 755L521 747Z"  />
<glyph unicode="&#xDB;" horiz-adv-x="735" d="M717 621Q672 617 653 605T630 562Q628 541 626 506T624 404V316Q624 229 608 165T549 55Q514 19 467 2T369 -15Q324 -15 282 -4T206 34Q161 68 140 125T119 271V518Q119 552 117 571T105 601T79 614T32 621V650H298V621Q269 619 252 616T227 602T216 572T213 518V293Q213 172 259 107T396 42Q448 42 483 62T540 120T571 209T581 323V404Q581 470 579 505T574 564Q572 578 567 588T550 605T521 615T477 621V650H717V621ZM504 684Q473 697 442 713T381 746Q351 729 321 713T259 684L243 709Q275 735 308 762T370 819H393Q422 788 454 762T520 709L504 684Z"  />
<glyph unicode="&#xDC;" horiz-adv-x="735" d="M717 621Q672 617 653 605T630 562Q628 541 626 506T624 404V316Q624 229 608 165T549 55Q514 19 467 2T369 -15Q324 -15 282 -4T206 34Q161 68 140 125T119 271V518Q119 552 117 571T105 601T79 614T32 621V650H298V621Q269 619 252 616T227 602T216 572T213 518V293Q213 172 259 107T396 42Q448 42 483 62T540 120T571 209T581 323V404Q581 470 579 505T574 564Q572 578 567 588T550 605T521 615T477 621V650H717V621ZM475 800Q497 800 511 786T526 748Q526 727 512 712T475 696Q454 696 439 711T424 748Q424 771 439 785T475 800ZM280 800Q303 800 317 785T332 747Q332 727 318 712T280 696Q260 696 245 711T230 747Q230 770 245 785T280 800Z"  />
<glyph unicode="&#xDD;" horiz-adv-x="638" d="M625 621Q599 618 583 614T555 601T531 578T506 541Q489 514 475 490T445 441T415 387T381 326Q371 306 368 294T365 262V127Q365 95 367 77T380 49T410 35T464 29V0H174V29Q207 31 226 35T255 48T268 76T271 127V256Q271 272 267 283T251 315Q226 360 197 412T126 536Q111 561 100 577T78 602T52 615T15 621V650H263V621Q236 617 223 613T205 603T203 588T213 566Q244 507 278 448T344 332Q357 356 373 385T405 445T435 503T460 555Q468 573 471 584T468 603T447 614T402 621V650H625V621ZM475 747L286 684L274 709L433 815Q438 814 445 807T459 791T471 771T478 755L475 747Z"  />
<glyph unicode="&#xDE;" horiz-adv-x="557" d="M295 621Q268 618 253 615T229 600T218 567T216 506Q239 507 260 507T303 508Q403 508 461 468T519 337Q519 292 501 257T450 199T376 164T288 151L216 168V125Q216 94 219 77T231 49T259 36T310 29V0H38V29Q67 31 84 35T109 49T120 79T123 131V520Q123 553 121 572T111 601T87 615T43 621V650H295V621ZM216 205Q224 201 240 197T280 193Q306 193 330 201T373 227T403 271T415 334Q415 406 378 439T277 473Q240 473 226 464Q221 461 219 456T216 433V205Z"  />
<glyph unicode="&#xDF;" horiz-adv-x="550" d="M101 450Q101 476 104 497T114 536Q117 546 122 559T137 589T161 622T198 658Q227 681 258 694T326 711Q398 709 441 670T487 559Q488 546 485 537T476 520Q425 481 401 448T376 388Q376 359 397 337T445 290Q458 278 472 265T497 235T515 199T523 157Q523 121 505 90T458 36T398 0T337 -13Q322 -13 308 -11T281 0Q257 15 262 35Q264 41 269 49T281 62Q292 70 302 63Q320 48 339 41T376 33Q386 33 398 37T420 50T436 74T443 110Q443 142 425 167T377 219Q336 254 315 284T294 345Q294 374 312 400T364 461Q381 478 391 488T405 504Q409 510 410 519T412 537Q412 562 404 585T379 627T342 656T295 667Q259 667 238 645T206 586T192 502T189 403V104Q189 81 190 67T197 45T212 34T240 28V0H31V28Q55 30 68 33T89 45T99 66T101 103V393H32L28 404L55 438H101V450Z"  />
<glyph unicode="&#xE0;" horiz-adv-x="444" d="M349 -12Q336 -12 322 -6T300 8Q282 26 276 51Q261 41 245 30T214 10T184 -6T160 -12Q133 -12 110 -2T71 26T46 65T37 111Q37 149 56 172T117 209Q139 217 163 225T209 243T248 260T273 275V295Q273 348 251 376T193 405Q166 405 150 386Q133 366 121 319Q114 294 89 294Q82 294 74 297T58 307T47 321T42 338Q42 350 51 359T75 380Q86 388 103 398T141 419T184 437T228 450Q251 450 273 444T312 423Q340 400 349 370T359 298V116Q359 82 369 70T393 57Q402 57 411 60T429 67L439 40L349 -12ZM273 240Q265 236 254 231T232 220T209 209T189 200Q161 186 146 171T131 127Q131 107 137 93T154 70T176 56T200 51Q218 51 238 60T273 83V240ZM227 490Q194 535 161 579T108 650L111 659Q115 661 126 664T150 669T175 673T193 673Q200 655 208 634T224 591T240 546T255 504L227 490Z"  />
<glyph unicode="&#xE1;" horiz-adv-x="444" d="M349 -12Q336 -12 322 -6T300 8Q282 26 276 51Q261 41 245 30T214 10T184 -6T160 -12Q133 -12 110 -2T71 26T46 65T37 111Q37 149 56 172T117 209Q139 217 163 225T209 243T248 260T273 275V295Q273 348 251 376T193 405Q166 405 150 386Q133 366 121 319Q114 294 89 294Q82 294 74 297T58 307T47 321T42 338Q42 350 51 359T75 380Q86 388 103 398T141 419T184 437T228 450Q251 450 273 444T312 423Q340 400 349 370T359 298V116Q359 82 369 70T393 57Q402 57 411 60T429 67L439 40L349 -12ZM273 240Q265 236 254 231T232 220T209 209T189 200Q161 186 146 171T131 127Q131 107 137 93T154 70T176 56T200 51Q218 51 238 60T273 83V240ZM179 506Q186 521 195 545T215 594T232 639T243 665Q246 667 258 669T284 673T311 675T329 675L333 665L206 492L179 506Z"  />
<glyph unicode="&#xE2;" horiz-adv-x="444" d="M349 -12Q336 -12 322 -6T300 8Q282 26 276 51Q261 41 245 30T214 10T184 -6T160 -12Q133 -12 110 -2T71 26T46 65T37 111Q37 149 56 172T117 209Q139 217 163 225T209 243T248 260T273 275V295Q273 348 251 376T193 405Q166 405 150 386Q133 366 121 319Q114 294 89 294Q82 294 74 297T58 307T47 321T42 338Q42 350 51 359T75 380Q86 388 103 398T141 419T184 437T228 450Q251 450 273 444T312 423Q340 400 349 370T359 298V116Q359 82 369 70T393 57Q402 57 411 60T429 67L439 40L349 -12ZM273 240Q265 236 254 231T232 220T209 209T189 200Q161 186 146 171T131 127Q131 107 137 93T154 70T176 56T200 51Q218 51 238 60T273 83V240ZM301 490Q276 513 254 537T211 586Q191 562 169 538T121 490L96 508Q125 550 150 590T198 673H225Q248 630 272 590T326 508L301 490Z"  />
<glyph unicode="&#xE3;" horiz-adv-x="444" d="M349 -12Q336 -12 322 -6T300 8Q282 26 276 51Q261 41 245 30T214 10T184 -6T160 -12Q133 -12 110 -2T71 26T46 65T37 111Q37 149 56 172T117 209Q139 217 163 225T209 243T248 260T273 275V295Q273 348 251 376T193 405Q166 405 150 386Q133 366 121 319Q114 294 89 294Q82 294 74 297T58 307T47 321T42 338Q42 350 51 359T75 380Q86 388 103 398T141 419T184 437T228 450Q251 450 273 444T312 423Q340 400 349 370T359 298V116Q359 82 369 70T393 57Q402 57 411 60T429 67L439 40L349 -12ZM273 240Q265 236 254 231T232 220T209 209T189 200Q161 186 146 171T131 127Q131 107 137 93T154 70T176 56T200 51Q218 51 238 60T273 83V240ZM81 536Q98 588 120 608T164 629Q177 629 189 625T223 609Q240 601 252 596T277 590Q291 590 301 602T322 635L347 621Q338 592 328 574T308 546T287 532T267 528Q250 528 235 534T201 552Q187 560 176 564T153 568Q128 568 108 519L81 536Z"  />
<glyph unicode="&#xE4;" horiz-adv-x="444" d="M349 -12Q336 -12 322 -6T300 8Q282 26 276 51Q261 41 245 30T214 10T184 -6T160 -12Q133 -12 110 -2T71 26T46 65T37 111Q37 149 56 172T117 209Q139 217 163 225T209 243T248 260T273 275V295Q273 348 251 376T193 405Q166 405 150 386Q133 366 121 319Q114 294 89 294Q82 294 74 297T58 307T47 321T42 338Q42 350 51 359T75 380Q86 388 103 398T141 419T184 437T228 450Q251 450 273 444T312 423Q340 400 349 370T359 298V116Q359 82 369 70T393 57Q402 57 411 60T429 67L439 40L349 -12ZM273 240Q265 236 254 231T232 220T209 209T189 200Q161 186 146 171T131 127Q131 107 137 93T154 70T176 56T200 51Q218 51 238 60T273 83V240ZM124 535Q104 535 89 550T73 586Q73 609 88 624T125 639Q146 639 161 624T176 586Q176 565 161 550T124 535ZM299 535Q279 535 264 550T248 586Q248 609 263 624T300 639Q321 639 336 624T351 586Q351 565 336 550T299 535Z"  />
<glyph unicode="&#xE5;" horiz-adv-x="444" d="M349 -12Q336 -12 322 -6T300 8Q282 26 276 51Q261 41 245 30T214 10T184 -6T160 -12Q133 -12 110 -2T71 26T46 65T37 111Q37 149 56 172T117 209Q139 217 163 225T209 243T248 260T273 275V295Q273 348 251 376T193 405Q166 405 150 386Q133 366 121 319Q114 294 89 294Q82 294 74 297T58 307T47 321T42 338Q42 350 51 359T75 380Q86 388 103 398T141 419T184 437T228 450Q251 450 273 444T312 423Q340 400 349 370T359 298V116Q359 82 369 70T393 57Q402 57 411 60T429 67L439 40L349 -12ZM273 240Q265 236 254 231T232 220T209 209T189 200Q161 186 146 171T131 127Q131 107 137 93T154 70T176 56T200 51Q218 51 238 60T273 83V240ZM213 499Q196 499 180 505T151 522T131 549T123 586Q123 606 130 621T151 648T180 664T214 670Q230 670 246 665T275 648T295 622T303 586Q303 566 296 550T275 522T246 505T213 499ZM214 531Q234 531 246 547T258 586Q258 609 246 623T213 638Q194 638 182 624T169 586Q169 563 181 547T214 531Z"  />
<glyph unicode="&#xE6;" horiz-adv-x="671" d="M642 86Q620 56 596 37T549 7T508 -8T477 -12Q422 -12 381 12T316 76L281 49Q267 38 251 27T218 8T188 -6T162 -12Q133 -12 111 -2T72 26T47 65T38 109Q38 147 57 170T116 209Q137 216 161 224T208 241T250 259T282 276V300Q282 348 257 376T198 405Q182 405 172 399T153 383Q145 373 139 357T126 319Q119 293 95 293Q89 293 81 296T65 306T52 320T46 336Q46 348 54 358T78 380Q90 388 107 398T145 418T188 436T232 450Q277 450 307 428Q335 410 347 377Q376 410 415 430T492 451Q525 451 553 438T602 404T635 354T647 297Q648 280 643 273T624 262Q618 260 594 258T533 254T452 249T362 245Q362 197 374 162T408 104T457 70T514 59Q542 59 569 70T625 108L642 86ZM469 412Q435 412 405 381T368 286Q409 287 450 287T533 289Q544 289 549 293T555 312Q555 331 549 349T532 381T505 403T469 412ZM203 54Q225 54 251 65T301 106Q289 132 285 168T281 240Q265 232 239 222T189 200Q160 187 146 172T132 130Q132 92 154 73T203 54Z"  />
<glyph unicode="&#xE7;" horiz-adv-x="421" d="M411 91Q380 53 345 27T271 -7L258 -26Q249 -38 251 -46T266 -67Q286 -87 294 -102T303 -134Q303 -165 273 -192T189 -236L177 -210Q207 -196 221 -180T236 -149Q237 -137 230 -128T215 -111Q196 -93 193 -81T203 -50L233 -12Q189 -10 153 6T91 51T51 116T36 196Q36 254 62 304T137 392Q182 427 223 438T292 450Q313 450 340 443T382 423Q399 411 397 393Q396 377 383 362T360 347Q352 347 341 358Q315 381 291 391T239 401Q219 401 199 393T163 365T136 316T125 244Q125 190 141 155T180 98T228 69T273 60Q306 60 332 71T393 114L411 91Z"  />
<glyph unicode="&#xE8;" horiz-adv-x="427" d="M399 87Q375 57 351 38T305 7T264 -8T233 -12Q186 -12 150 5T88 52T49 120T36 201Q36 254 54 299T103 377Q135 412 173 431T251 450Q283 450 311 437T359 403T391 354T403 296Q403 281 399 274T379 263Q373 262 349 260T288 256T209 251T122 247Q123 198 136 163T170 105T217 71T269 60Q330 60 383 109L399 87ZM228 413Q195 413 167 382T128 289Q205 289 288 292Q311 292 311 312Q311 331 306 349T290 382T263 404T228 413ZM239 490Q206 535 173 579T120 650L123 659Q127 661 138 664T162 669T187 673T205 673Q212 655 220 634T236 591T251 546T267 504L239 490Z"  />
<glyph unicode="&#xE9;" horiz-adv-x="427" d="M399 87Q375 57 351 38T305 7T264 -8T233 -12Q186 -12 150 5T88 52T49 120T36 201Q36 254 54 299T103 377Q135 412 173 431T251 450Q283 450 311 437T359 403T391 354T403 296Q403 281 399 274T379 263Q373 262 349 260T288 256T209 251T122 247Q123 198 136 163T170 105T217 71T269 60Q330 60 383 109L399 87ZM228 413Q195 413 167 382T128 289Q205 289 288 292Q311 292 311 312Q311 331 306 349T290 382T263 404T228 413ZM194 506Q201 521 210 545T230 594T247 639T258 665Q261 667 273 669T299 673T326 675T344 675L348 665L221 492L194 506Z"  />
<glyph unicode="&#xEA;" horiz-adv-x="427" d="M399 87Q375 57 351 38T305 7T264 -8T233 -12Q186 -12 150 5T88 52T49 120T36 201Q36 254 54 299T103 377Q135 412 173 431T251 450Q283 450 311 437T359 403T391 354T403 296Q403 281 399 274T379 263Q373 262 349 260T288 256T209 251T122 247Q123 198 136 163T170 105T217 71T269 60Q330 60 383 109L399 87ZM228 413Q195 413 167 382T128 289Q205 289 288 292Q311 292 311 312Q311 331 306 349T290 382T263 404T228 413ZM319 490Q293 513 271 537T229 586Q209 562 187 538T139 490L114 508Q143 550 167 590T215 673H243Q266 630 290 590T344 508L319 490Z"  />
<glyph unicode="&#xEB;" horiz-adv-x="427" d="M399 87Q375 57 351 38T305 7T264 -8T233 -12Q186 -12 150 5T88 52T49 120T36 201Q36 254 54 299T103 377Q135 412 173 431T251 450Q283 450 311 437T359 403T391 354T403 296Q403 281 399 274T379 263Q373 262 349 260T288 256T209 251T122 247Q123 198 136 163T170 105T217 71T269 60Q330 60 383 109L399 87ZM228 413Q195 413 167 382T128 289Q205 289 288 292Q311 292 311 312Q311 331 306 349T290 382T263 404T228 413ZM137 535Q117 535 102 550T86 586Q86 609 101 624T138 639Q159 639 174 624T189 586Q189 565 174 550T137 535ZM312 535Q292 535 277 550T261 586Q261 609 276 624T313 639Q334 639 349 624T364 586Q364 565 349 550T312 535Z"  />
<glyph unicode="&#xEC;" horiz-adv-x="273" d="M32 0V27Q55 29 69 32T90 45T99 69T101 111V309Q101 333 100 347T92 369T74 381T39 388V413Q119 425 189 451V111Q189 84 191 69T200 45T220 34T258 27V0H32ZM144 490Q111 535 78 579T25 650L28 659Q32 661 43 664T67 669T92 673T110 673Q117 655 124 634T140 591T156 546T172 504L144 490Z"  />
<glyph unicode="&#xED;" horiz-adv-x="273" d="M32 0V27Q55 29 69 32T90 45T99 69T101 111V309Q101 333 100 347T92 369T74 381T39 388V413Q119 425 189 451V111Q189 84 191 69T200 45T220 34T258 27V0H32ZM101 506Q108 521 117 545T137 594T154 639T165 665Q168 667 180 669T206 673T233 675T251 675L255 665L128 492L101 506Z"  />
<glyph unicode="&#xEE;" horiz-adv-x="273" d="M32 0V27Q55 29 69 32T90 45T99 69T101 111V309Q101 333 100 347T92 369T74 381T39 388V413Q119 425 189 451V111Q189 84 191 69T200 45T220 34T258 27V0H32ZM225 490Q199 513 177 537T135 586Q115 562 93 538T45 490L20 508Q49 550 74 590T122 673H149Q172 630 196 590T250 508L225 490Z"  />
<glyph unicode="&#xEF;" horiz-adv-x="273" d="M32 0V27Q55 29 69 32T90 45T99 69T101 111V309Q101 333 100 347T92 369T74 381T39 388V413Q119 425 189 451V111Q189 84 191 69T200 45T220 34T258 27V0H32ZM46 535Q26 535 11 550T-5 586Q-5 609 10 624T47 639Q68 639 83 624T98 586Q98 565 83 550T46 535ZM221 535Q201 535 186 550T170 586Q170 609 185 624T222 639Q243 639 258 624T273 586Q273 565 258 550T221 535Z"  />
<glyph unicode="&#xF0;" horiz-adv-x="508" d="M337 599Q403 530 436 449T470 268Q470 195 452 142T402 55T331 5T249 -12Q199 -12 160 7T93 58T51 129T36 210Q36 270 57 315T112 390T184 435T261 450Q285 450 306 445T348 428Q340 468 322 503T279 567L134 490L118 522L254 593Q212 632 167 653T81 679Q76 685 78 695T88 710Q142 707 200 685T308 625L436 692L453 660L337 599ZM256 416Q204 416 172 368T138 238Q138 190 147 151T172 83T212 39T266 23Q286 23 305 32T339 66T363 130T374 234Q374 267 373 290T368 330T358 358T345 377Q328 395 306 405T256 416Z"  />
<glyph unicode="&#xF1;" horiz-adv-x="550" d="M315 0V27Q336 29 348 32T367 44T376 68T378 110V277Q378 330 358 359T291 388Q263 388 237 374T188 340V104Q188 79 190 65T198 43T216 32T250 27V0H29V27Q54 30 68 33T89 44T98 66T100 105V312Q100 336 98 349T90 369T73 380T41 388V412Q79 419 116 429T188 453V374Q203 385 219 396T254 420Q276 434 295 442T336 450Q396 450 430 410T465 297V104Q465 79 467 65T475 43T494 33T528 27V0H315ZM141 536Q158 588 180 608T223 629Q236 629 248 625T282 609Q299 601 311 596T336 590Q350 590 360 602T381 635L406 621Q397 592 387 574T367 546T346 532T326 528Q309 528 294 534T260 552Q246 560 235 564T212 568Q187 568 167 519L141 536Z"  />
<glyph unicode="&#xF2;" horiz-adv-x="513" d="M259 450Q306 450 346 433T415 385T460 314T477 227Q477 166 457 121T406 47T335 3T258 -12Q205 -12 164 7T95 57T51 128T36 209Q36 271 57 316T112 391T184 435T259 450ZM247 416Q225 416 206 405T171 372T147 318T138 242Q138 195 147 155T173 85T215 39T269 22Q290 22 309 30T343 60T366 116T375 203Q375 248 367 287T342 354T302 399T247 416ZM268 490L148 650L152 659Q155 661 166 664T190 669T215 673T234 673Q241 655 248 634T264 591T280 546T295 504L268 490Z"  />
<glyph unicode="&#xF3;" horiz-adv-x="513" d="M259 450Q306 450 346 433T415 385T460 314T477 227Q477 166 457 121T406 47T335 3T258 -12Q205 -12 164 7T95 57T51 128T36 209Q36 271 57 316T112 391T184 435T259 450ZM247 416Q225 416 206 405T171 372T147 318T138 242Q138 195 147 155T173 85T215 39T269 22Q290 22 309 30T343 60T366 116T375 203Q375 248 367 287T342 354T302 399T247 416ZM221 506Q228 521 237 545T257 594T274 639T285 665Q288 667 300 669T326 673T353 675T371 675L375 665L248 492L221 506Z"  />
<glyph unicode="&#xF4;" horiz-adv-x="513" d="M259 450Q306 450 346 433T415 385T460 314T477 227Q477 166 457 121T406 47T335 3T258 -12Q205 -12 164 7T95 57T51 128T36 209Q36 271 57 316T112 391T184 435T259 450ZM247 416Q225 416 206 405T171 372T147 318T138 242Q138 195 147 155T173 85T215 39T269 22Q290 22 309 30T343 60T366 116T375 203Q375 248 367 287T342 354T302 399T247 416ZM346 490Q321 513 299 537T256 586Q236 562 214 538T166 490L141 508Q170 550 195 590T243 673H270Q293 630 317 590T371 508L346 490Z"  />
<glyph unicode="&#xF5;" horiz-adv-x="513" d="M259 450Q306 450 346 433T415 385T460 314T477 227Q477 166 457 121T406 47T335 3T258 -12Q205 -12 164 7T95 57T51 128T36 209Q36 271 57 316T112 391T184 435T259 450ZM247 416Q225 416 206 405T171 372T147 318T138 242Q138 195 147 155T173 85T215 39T269 22Q290 22 309 30T343 60T366 116T375 203Q375 248 367 287T342 354T302 399T247 416ZM123 536Q140 588 162 608T205 629Q218 629 230 625T264 609Q281 601 293 596T318 590Q332 590 342 602T363 635L388 621Q379 592 369 574T349 546T328 532T308 528Q291 528 276 534T242 552Q228 560 217 564T194 568Q169 568 149 519L123 536Z"  />
<glyph unicode="&#xF6;" horiz-adv-x="513" d="M259 450Q306 450 346 433T415 385T460 314T477 227Q477 166 457 121T406 47T335 3T258 -12Q205 -12 164 7T95 57T51 128T36 209Q36 271 57 316T112 391T184 435T259 450ZM247 416Q225 416 206 405T171 372T147 318T138 242Q138 195 147 155T173 85T215 39T269 22Q290 22 309 30T343 60T366 116T375 203Q375 248 367 287T342 354T302 399T247 416ZM168 535Q148 535 133 550T117 586Q117 609 132 624T169 639Q190 639 205 624T220 586Q220 565 205 550T168 535ZM343 535Q323 535 308 550T292 586Q292 609 307 624T344 639Q365 639 380 624T395 586Q395 565 380 550T343 535Z"  />
<glyph unicode="&#xF7;" horiz-adv-x="579" d="M292 353Q272 353 257 368T241 405Q241 425 256 440T292 456Q313 456 328 441T344 405Q344 383 329 368T292 353ZM51 228V280H529V228H51ZM291 155Q310 155 326 141T342 104Q342 84 326 69T291 53Q269 53 254 68T239 104Q239 126 254 140T291 155Z"  />
<glyph unicode="&#xF8;" horiz-adv-x="516" d="M399 402Q438 371 459 326T480 227Q480 168 461 123T410 48T339 3T260 -12Q228 -12 199 -4T144 18L106 -36L80 -14L117 38Q78 70 57 116T36 210Q36 271 58 316T113 391T186 435T262 450Q294 450 320 443T371 421L407 473L434 454L399 402ZM336 370Q322 391 299 403T250 416Q227 416 206 405T169 371T143 314T133 234Q133 156 161 105L336 370ZM181 73Q195 50 217 36T269 22Q291 22 311 32T348 64T374 123T384 213Q384 248 377 279T356 338L181 73Z"  />
<glyph unicode="&#xF9;" horiz-adv-x="535" d="M522 24Q486 19 447 9T369 -12L362 -6V63Q345 50 329 38T293 14Q271 1 253 -5T214 -12Q188 -12 165 -4T125 23T99 69T89 136V333Q89 354 88 366T80 384T62 394T28 402V427Q101 431 180 445Q178 420 177 384T176 298V162Q176 130 183 109T202 76T229 58T261 53Q316 53 362 98V333Q362 354 360 366T351 385T328 395T287 402V427Q327 429 367 433T450 445V113Q450 94 452 83T459 65T473 56T496 52L522 50V24ZM269 490Q252 512 235 535T203 579T173 618T149 650L153 659Q156 661 167 664T191 669T216 673T235 673Q242 655 249 634T265 591T281 546T296 504L269 490Z"  />
<glyph unicode="&#xFA;" horiz-adv-x="535" d="M522 24Q486 19 447 9T369 -12L362 -6V63Q345 50 329 38T293 14Q271 1 253 -5T214 -12Q188 -12 165 -4T125 23T99 69T89 136V333Q89 354 88 366T80 384T62 394T28 402V427Q101 431 180 445Q178 420 177 384T176 298V162Q176 130 183 109T202 76T229 58T261 53Q316 53 362 98V333Q362 354 360 366T351 385T328 395T287 402V427Q327 429 367 433T450 445V113Q450 94 452 83T459 65T473 56T496 52L522 50V24ZM228 506Q235 521 244 545T264 594T281 639T292 665Q295 667 307 669T333 673T360 675T378 675L382 665L255 492L228 506Z"  />
<glyph unicode="&#xFB;" horiz-adv-x="535" d="M522 24Q486 19 447 9T369 -12L362 -6V63Q345 50 329 38T293 14Q271 1 253 -5T214 -12Q188 -12 165 -4T125 23T99 69T89 136V333Q89 354 88 366T80 384T62 394T28 402V427Q101 431 180 445Q178 420 177 384T176 298V162Q176 130 183 109T202 76T229 58T261 53Q316 53 362 98V333Q362 354 360 366T351 385T328 395T287 402V427Q327 429 367 433T450 445V113Q450 94 452 83T459 65T473 56T496 52L522 50V24ZM353 490Q328 513 306 537T264 586Q243 562 221 538T173 490L149 508Q178 550 202 590T250 673H278Q301 630 325 590T378 508L353 490Z"  />
<glyph unicode="&#xFC;" horiz-adv-x="535" d="M522 24Q486 19 447 9T369 -12L362 -6V63Q345 50 329 38T293 14Q271 1 253 -5T214 -12Q188 -12 165 -4T125 23T99 69T89 136V333Q89 354 88 366T80 384T62 394T28 402V427Q101 431 180 445Q178 420 177 384T176 298V162Q176 130 183 109T202 76T229 58T261 53Q316 53 362 98V333Q362 354 360 366T351 385T328 395T287 402V427Q327 429 367 433T450 445V113Q450 94 452 83T459 65T473 56T496 52L522 50V24ZM172 535Q152 535 137 550T121 586Q121 609 136 624T173 639Q194 639 209 624T224 586Q224 565 209 550T172 535ZM347 535Q327 535 312 550T296 586Q296 609 311 624T348 639Q369 639 384 624T399 586Q399 565 384 550T347 535Z"  />
<glyph unicode="&#xFD;" horiz-adv-x="460" d="M479 412Q459 409 447 405T426 394T409 373T391 339Q382 319 371 293T346 231T312 149T267 42Q242 -18 225 -60T197 -134T178 -187T164 -230Q160 -245 151 -250T131 -255Q110 -255 91 -240T72 -204Q72 -192 78 -184T98 -167Q123 -152 140 -133T174 -81Q187 -58 193 -43T203 -18Q210 3 201 28Q185 73 169 117T137 203T108 279T84 339Q76 358 70 371T54 392T33 404T0 412V438H211V412Q176 406 169 396T172 358L261 112Q271 137 283 169T308 235T330 300T349 355Q358 383 349 394T298 412V438H479V412ZM219 506Q226 521 235 545T255 594T272 639T283 665Q286 667 298 669T324 673T351 675T369 675L373 665L246 492L219 506Z"  />
<glyph unicode="&#xFE;" horiz-adv-x="519" d="M164 387Q192 402 218 415T270 442Q288 450 307 450Q349 450 382 433T437 389T470 328T482 260Q482 204 462 158T408 78T329 20T233 -12Q209 -11 192 -5T164 7V-129Q164 -155 166 -170T178 -194T205 -206T253 -212V-240H5V-212Q28 -210 42 -207T63 -196T73 -173T76 -132V575Q76 600 75 614T66 636T46 647T7 652V677Q45 681 87 690T164 710V387ZM164 79Q179 63 205 51T258 39Q282 39 306 49T348 80T378 135T390 217Q390 261 379 293T350 346T308 377T256 388Q232 388 209 378T164 353V79Z"  />
<glyph unicode="&#xFF;" horiz-adv-x="460" d="M479 412Q459 409 447 405T426 394T409 373T391 339Q382 319 371 293T346 231T312 149T267 42Q242 -18 225 -60T197 -134T178 -187T164 -230Q160 -245 151 -250T131 -255Q110 -255 91 -240T72 -204Q72 -192 78 -184T98 -167Q123 -152 140 -133T174 -81Q187 -58 193 -43T203 -18Q210 3 201 28Q185 73 169 117T137 203T108 279T84 339Q76 358 70 371T54 392T33 404T0 412V438H211V412Q176 406 169 396T172 358L261 112Q271 137 283 169T308 235T330 300T349 355Q358 383 349 394T298 412V438H479V412ZM154 535Q133 535 118 550T103 586Q103 609 118 624T155 639Q176 639 190 624T205 586Q205 565 191 550T154 535ZM329 535Q308 535 293 550T278 586Q278 609 293 624T330 639Q351 639 365 624T380 586Q380 565 366 550T329 535Z"  />
<glyph unicode="&#x152;" horiz-adv-x="976" d="M956 160Q954 148 950 126T940 81T929 35T921 0H612Q582 0 559 -1T509 -4Q477 -7 454 -9T408 -11Q315 -11 247 16T134 88T67 193T45 317Q45 395 74 458T154 566T276 636T428 661Q456 661 478 659T525 655Q550 653 572 652T617 650H897Q897 641 898 625T900 589T903 548T907 507L875 504Q867 536 860 554T843 587Q832 602 808 607T731 613H660Q637 613 632 609T626 582V357H720Q752 357 770 359T799 370T813 392T823 431H854V238H823Q818 264 814 279T799 302T770 312T720 315H626V135Q626 94 631 76T650 49Q665 39 690 38T751 36Q778 36 797 37T831 43T856 53T875 69Q889 85 901 109T926 164L956 160ZM533 548Q533 574 529 586T513 605Q498 613 474 618T418 624Q357 624 309 604T226 545T174 453T156 330Q156 271 170 217T216 119T298 51T419 25Q468 25 498 39Q517 48 525 62T533 108V548Z"  />
<glyph unicode="&#x153;" horiz-adv-x="770" d="M738 86Q717 56 694 37T648 7T606 -8T575 -12Q521 -12 480 11T414 73Q382 29 339 9T252 -12Q201 -12 161 7T93 58T50 128T35 209Q35 271 56 316T111 391T182 435T254 450Q310 450 353 424T422 353Q450 394 495 422T590 450Q623 450 651 437T700 403T733 355T745 297Q745 279 741 273T723 262Q717 261 692 259T630 255T548 250T457 246Q457 197 469 162T503 104T553 70T611 59Q640 59 666 71T722 108L738 86ZM565 412Q531 412 501 381T463 286Q545 286 632 289Q653 289 653 312Q653 354 629 383T565 412ZM246 416Q203 416 171 371T138 241Q138 194 147 154T173 85T214 40T268 23Q288 23 306 32T339 63T363 120T372 206Q372 252 364 290T340 357T300 400T246 416Z"  />
<glyph unicode="&#x160;" horiz-adv-x="480" d="M385 496Q378 520 369 543T344 586T307 618T253 630Q226 630 206 621T172 597T151 563T144 522Q144 496 152 476T177 439T217 407T271 377Q302 361 333 344T388 303T428 249T444 177Q444 137 428 102T382 41T311 0T218 -15Q188 -15 164 -11T120 0Q100 6 88 11T68 21Q65 29 61 47T54 89T47 136T41 179L72 187Q78 164 90 135T122 81T170 39T237 22Q292 22 323 53T354 139Q354 166 345 186T318 224T278 256T226 286Q199 300 170 317T116 357T75 412T59 484Q59 521 73 553T115 611T181 650T269 665Q307 665 339 657T397 641Q400 614 404 582T415 502L385 496ZM389 806Q357 782 325 755T262 696H239Q210 728 177 754T112 806L127 832Q159 818 189 803T251 771Q281 788 311 803T374 832L389 806Z"  />
<glyph unicode="&#x161;" horiz-adv-x="370" d="M296 318Q281 363 256 390T193 417Q166 417 149 399T131 351Q131 319 154 300T213 266Q271 242 306 212T341 128Q341 93 327 67T288 24T234 -3T174 -12Q135 -12 103 -1T57 22Q54 27 52 41T47 73T42 110T40 143L68 147Q75 123 86 100T114 60T149 33T192 22Q219 22 239 40T260 89Q260 121 241 140T182 179Q160 189 138 201T97 229T67 267T55 318Q55 345 66 369T97 411T146 439T210 450Q242 450 263 445T301 432Q304 424 307 410T314 379T319 349T323 325L296 318ZM307 659Q277 617 253 577T205 495H178Q155 538 131 577T77 659L102 677Q128 654 150 630T192 582Q212 605 234 629T282 677L307 659Z"  />
<glyph unicode="&#x178;" horiz-adv-x="638" d="M625 621Q599 618 583 614T555 601T531 578T506 541Q489 514 475 490T445 441T415 387T381 326Q371 306 368 294T365 262V127Q365 95 367 77T380 49T410 35T464 29V0H174V29Q207 31 226 35T255 48T268 76T271 127V256Q271 272 267 283T251 315Q226 360 197 412T126 536Q111 561 100 577T78 602T52 615T15 621V650H263V621Q236 617 223 613T205 603T203 588T213 566Q244 507 278 448T344 332Q357 356 373 385T405 445T435 503T460 555Q468 573 471 584T468 603T447 614T402 621V650H625V621ZM426 800Q448 800 463 786T478 748Q478 727 463 712T426 696Q406 696 391 711T375 748Q375 771 390 785T426 800ZM232 800Q254 800 269 785T284 747Q284 727 269 712T232 696Q212 696 197 711T181 747Q181 770 196 785T232 800Z"  />
<glyph unicode="&#x17D;" horiz-adv-x="606" d="M594 172Q591 158 587 135T577 87T566 39T557 0H38L29 15Q133 164 236 312T442 612H278Q237 612 213 610T174 604T151 594T137 577Q128 563 119 542T102 488L72 489Q75 539 78 589T84 675H108Q118 657 128 654T162 650H562L569 636Q466 487 366 342T164 43Q188 40 228 39T319 37Q363 37 394 38T446 44T482 55T507 74Q523 91 536 116T563 179L594 172ZM458 797Q426 772 394 745T331 686H308Q279 718 246 744T181 797L196 822Q260 796 320 761Q350 778 380 793T443 822L458 797Z"  />
<glyph unicode="&#x17E;" horiz-adv-x="424" d="M417 128Q406 96 394 63T371 0H37L29 15Q94 112 154 207T275 403H192Q165 403 148 400T119 389T98 366T78 331L63 303L37 313Q46 343 56 385T72 460H94Q99 448 110 443T150 438H382L389 424Q328 327 269 232T149 35H242Q270 35 289 39T324 52T351 77T377 116L391 141L417 128ZM333 659Q303 617 279 577T231 495H204Q181 538 157 577T103 659L128 677Q154 654 176 630T218 582Q238 605 260 629T308 677L333 659Z"  />
<glyph unicode="&#x192;" horiz-adv-x="483" d="M191 414Q202 477 225 519T288 596Q330 632 359 642T406 652Q415 652 425 649T445 639T460 624T465 607Q465 601 462 592T452 576T439 565T426 563Q420 566 412 572T395 585T375 595T353 600Q330 600 316 570Q312 562 308 550T300 517T290 460T278 371H389L388 332H271L242 139Q234 84 221 46T192 -21T157 -67T118 -101Q91 -121 69 -129T29 -138Q19 -138 9 -135T-9 -126T-21 -113T-26 -99Q-26 -92 -22 -83T-12 -67T0 -54T11 -49Q15 -49 22 -54T39 -65T59 -77T81 -82Q109 -82 119 -50Q125 -32 132 9T150 131L177 332H89V371H183L191 414Z"  />
<glyph unicode="&#x2C6;" horiz-adv-x="400" d="M290 490Q264 513 242 537T200 586Q180 562 158 538T110 490L85 508Q114 550 139 590T187 673H214Q237 630 261 590T315 508L290 490Z"  />
<glyph unicode="&#x2DC;" horiz-adv-x="400" d="M67 536Q84 588 106 608T149 629Q162 629 174 625T208 609Q225 601 237 596T262 590Q276 590 286 602T307 635L332 621Q323 592 313 574T293 546T272 532T252 528Q235 528 220 534T186 552Q172 560 161 564T138 568Q113 568 93 519L67 536Z"  />
<glyph unicode="&#x2013;" horiz-adv-x="518" d="M50 200V254H468V200H50Z"  />
<glyph unicode="&#x2014;" horiz-adv-x="922" d="M50 200V254H872V200H50Z"  />
<glyph unicode="&#x2018;" horiz-adv-x="227" d="M186 689Q148 672 127 652T106 602Q106 575 125 559T170 538Q175 537 179 532T184 515Q184 495 169 485T139 475H138Q121 475 104 482T72 502T49 535T40 580Q40 608 52 630T83 669T126 698T175 716L186 689Z"  />
<glyph unicode="&#x2019;" horiz-adv-x="226" d="M87 709Q104 709 121 702T153 682T177 649T186 604Q186 577 174 555T143 515T100 486T51 468L41 496Q78 513 99 532T120 582Q120 609 101 625T56 646Q51 647 47 652T43 669Q43 689 58 699T87 709Z"  />
<glyph unicode="&#x201A;" horiz-adv-x="242" d="M95 130Q112 130 130 123T164 101T188 67T198 22Q198 -7 186 -30T153 -71T108 -101T57 -119L47 -89Q85 -72 107 -52T130 -1Q130 27 110 43T62 65Q57 66 53 72T48 89Q48 109 64 119T95 130Z"  />
<glyph unicode="&#x201C;" horiz-adv-x="406" d="M186 689Q148 672 127 653T106 603Q106 576 125 560T170 538Q175 537 179 532T184 515Q184 495 168 485T138 475H137Q120 475 103 482T72 502T49 535T40 580Q40 608 52 630T83 669T126 698T175 716L186 689ZM366 689Q328 672 307 653T286 603Q286 576 305 560T351 538Q356 537 360 532T364 515Q364 495 349 485T319 475H318Q301 475 284 482T253 502T229 535T220 580Q220 608 232 630T263 669T306 698T355 716L366 689Z"  />
<glyph unicode="&#x201D;" horiz-adv-x="409" d="M87 709Q104 709 121 702T153 682T177 649T186 604Q186 576 174 554T143 514T99 485T50 467L40 495Q78 511 99 531T120 582Q120 608 101 624T55 646Q51 647 47 652T42 669Q42 689 57 699T87 709ZM270 709Q287 709 304 702T336 682T360 649T369 604Q369 576 357 554T326 514T282 485T233 467L223 495Q260 511 281 531T302 582Q302 608 283 624T238 646Q233 647 229 652T225 669Q225 689 240 699T270 709Z"  />
<glyph unicode="&#x201E;" horiz-adv-x="436" d="M286 131Q303 131 321 124T355 102T379 68T389 22Q389 -7 377 -30T344 -71T299 -101T248 -119L237 -89Q276 -72 298 -52T321 -1Q321 27 301 43T252 65Q248 66 244 72T239 89Q239 110 255 120T286 131ZM95 131Q112 131 130 124T164 102T188 68T198 22Q198 -7 186 -30T153 -71T108 -101T57 -119L47 -89Q85 -72 107 -52T130 -1Q130 27 110 43T62 65Q49 67 49 89Q49 110 64 120T95 131Z"  />
<glyph unicode="&#x2020;" horiz-adv-x="493" d="M222 -96Q224 -70 224 -45T223 15Q223 61 221 102T214 178T205 239T193 280Q211 315 218 342T227 404Q182 402 153 394T101 370Q87 375 71 389T46 420Q55 435 71 449T101 468Q124 453 153 445T227 435Q226 460 224 478T217 512T205 543T187 576Q197 595 213 612T246 638Q263 630 278 613T304 576Q293 558 286 543T275 512T268 478T264 435Q309 437 338 445T390 468Q404 463 420 449T445 420Q436 403 420 389T390 370Q367 385 338 393T264 404Q265 370 273 343T300 280Q293 265 287 239T277 179T270 103T267 15Q267 -20 267 -45T269 -96H222Z"  />
<glyph unicode="&#x2021;" horiz-adv-x="489" d="M445 128Q437 112 422 98T392 78Q368 94 339 102T264 112Q265 86 267 68T274 33T286 2T305 -32Q294 -52 279 -69T247 -94Q230 -86 214 -69T187 -32Q198 -14 205 1T217 32T224 67T228 112Q182 110 153 102T100 78Q86 83 71 97T46 128Q55 143 70 157T100 176Q124 160 153 153T228 143Q226 199 219 231T188 282Q211 304 218 335T228 418Q182 416 153 408T100 385Q86 390 71 404T46 433Q55 449 70 462T100 481Q124 466 153 459T228 449Q227 468 225 483T217 513T205 543T187 577Q198 596 213 613T246 638Q263 630 278 613T305 577Q294 558 287 543T275 514T268 484T264 449Q310 451 339 458T391 481Q407 476 422 463T445 433Q437 418 422 404T392 385Q368 400 339 408T264 418Q266 367 273 336T304 282Q282 263 273 232T264 146V143Q310 144 339 152T392 176Q406 171 421 157T445 128Z"  />
<glyph unicode="&#x2022;" horiz-adv-x="392" d="M197 353Q224 353 247 343T288 314T316 272T327 219Q327 190 317 166T289 123T248 95T197 84Q170 84 146 94T104 123T76 165T65 219Q65 247 75 271T104 314T146 342T197 353Z"  />
<glyph unicode="&#x2026;" horiz-adv-x="972" d="M161 -12Q135 -12 119 4T102 49Q102 75 118 92T161 110Q187 110 203 93T220 49Q220 21 204 5T161 -12ZM487 -12Q461 -12 445 4T428 49Q428 75 444 92T487 110Q513 110 530 93T547 49Q547 21 530 5T487 -12ZM809 -12Q783 -12 767 4T750 49Q750 75 766 92T809 110Q835 110 851 93T868 49Q868 21 852 5T809 -12Z"  />
<glyph unicode="&#x2030;" horiz-adv-x="1067" d="M183 -33L151 -9L554 652L588 628L183 -33ZM192 635Q230 635 257 619T302 577T328 520T337 459Q337 430 329 399T303 342T258 300T192 283Q154 283 127 299T83 342T57 399T48 459Q48 488 56 519T82 576T127 618T192 635ZM194 604Q172 604 159 589T138 551T128 503T125 460Q125 442 128 417T138 368T159 328T194 312Q216 312 229 328T249 368T258 416T260 459Q260 477 258 502T249 549T229 588T194 604ZM554 340Q591 340 618 324T663 282T689 225T698 164Q698 135 690 104T664 47T619 5T554 -12Q516 -12 489 4T443 47T417 103T408 163Q408 193 416 224T443 281T488 323T554 340ZM880 340Q918 340 945 324T989 282T1015 225T1024 164Q1024 135 1016 104T990 47T945 5T880 -12Q842 -12 815 4T770 47T744 103T735 163Q735 193 743 224T769 281T814 323T880 340ZM554 310Q532 310 519 295T499 257T489 209T486 165Q486 147 488 122T498 74T518 35T554 19Q576 19 589 35T610 75T619 122T621 164Q621 182 619 207T610 255T590 294T554 310ZM880 310Q858 310 845 295T825 257T815 209T812 165Q812 147 814 122T824 74T845 35T880 19Q902 19 915 35T936 75T945 122T947 164Q947 182 945 207T936 255T916 294T880 310Z"  />
<glyph unicode="&#x2039;" horiz-adv-x="279" d="M206 37Q161 96 119 145T48 222Q77 251 119 299T206 407L231 392L139 222L231 53L206 37Z"  />
<glyph unicode="&#x203A;" horiz-adv-x="279" d="M73 407Q118 349 160 300T231 222Q203 194 161 145T73 37L48 53L140 222L48 391L73 407Z"  />
<glyph unicode="&#x20AC;" horiz-adv-x="483" d="M462 129Q455 100 443 66T421 11Q414 8 401 4T371 -3T336 -9T302 -12Q245 -12 204 9T134 67T89 150T67 248H22V285H64Q63 299 64 318T67 355H22V392H71Q91 510 157 573T323 636Q365 636 395 628T441 615Q445 584 448 554T455 493L425 486Q411 539 387 570T313 601Q257 601 220 549T169 392H384V355H165Q163 338 163 319T164 285H384V248H168Q176 140 212 82T310 24Q352 24 379 53T433 139L462 129Z"  />
<glyph unicode="&#x2122;" horiz-adv-x="463" d="M174 587Q171 596 169 603T163 613Q156 620 139 620H124V523Q124 503 128 499T151 493V477H63V493Q82 495 85 499T89 523V620H77Q59 620 52 611Q49 609 46 603T41 587H26Q27 604 28 619T29 643H42Q44 638 47 638Q49 637 55 637H162Q170 637 175 643H187Q188 635 188 620T190 587H174ZM357 477V493Q373 494 376 498T380 521V610H379L320 480H306L254 603H253L249 546Q248 531 248 522T248 507Q249 500 254 498T273 493V477H201V493Q212 494 216 496T223 507Q225 513 226 521T229 549L232 588Q234 608 230 613T207 619V637H275L322 539L370 637H436V619Q421 618 418 614T414 593L415 525Q415 504 418 500T438 493V477H357Z"  />


</font>
</defs>
</svg>
